solid CATIA STL
  facet normal  0.000000e+000  0.000000e+000 -1.000000e+000
    outer loop
      vertex -3.600000e+002 -3.600000e+002  0.000000e+000
      vertex -3.600000e+002  3.600000e+002  0.000000e+000
      vertex  3.600000e+002 -3.600000e+002  0.000000e+000
    endloop
  endfacet
  facet normal  0.000000e+000  0.000000e+000 -1.000000e+000
    outer loop
      vertex  3.600000e+002 -3.600000e+002  0.000000e+000
      vertex -3.600000e+002  3.600000e+002  0.000000e+000
      vertex  3.600000e+002  3.600000e+002  0.000000e+000
    endloop
  endfacet
  facet normal  0.000000e+000  0.000000e+000  1.000000e+000
    outer loop
      vertex -3.600000e+002 -3.600000e+002  5.200000e+001
      vertex  3.600000e+002 -3.600000e+002  5.200000e+001
      vertex  3.480000e+002 -3.480000e+002  5.200000e+001
    endloop
  endfacet
  facet normal  0.000000e+000  0.000000e+000  1.000000e+000
    outer loop
      vertex -3.600000e+002 -3.600000e+002  5.200000e+001
      vertex  3.480000e+002 -3.480000e+002  5.200000e+001
      vertex -1.680000e+002 -3.480000e+002  5.200000e+001
    endloop
  endfacet
  facet normal  0.000000e+000  0.000000e+000  1.000000e+000
    outer loop
      vertex -3.600000e+002 -3.600000e+002  5.200000e+001
      vertex -1.680000e+002 -3.480000e+002  5.200000e+001
      vertex -1.800000e+002 -3.480000e+002  5.200000e+001
    endloop
  endfacet
  facet normal  0.000000e+000  0.000000e+000  1.000000e+000
    outer loop
      vertex -3.600000e+002 -3.600000e+002  5.200000e+001
      vertex -1.800000e+002 -3.480000e+002  5.200000e+001
      vertex -3.480000e+002 -3.480000e+002  5.200000e+001
    endloop
  endfacet
  facet normal  0.000000e+000  -0.000000e+000  1.000000e+000
    outer loop
      vertex -3.600000e+002 -3.600000e+002  5.200000e+001
      vertex -3.480000e+002 -3.480000e+002  5.200000e+001
      vertex -3.480000e+002  3.480000e+002  5.200000e+001
    endloop
  endfacet
  facet normal  0.000000e+000  0.000000e+000  1.000000e+000
    outer loop
      vertex -3.600000e+002 -3.600000e+002  5.200000e+001
      vertex -3.480000e+002  3.480000e+002  5.200000e+001
      vertex -3.600000e+002  3.600000e+002  5.200000e+001
    endloop
  endfacet
  facet normal  0.000000e+000  0.000000e+000  1.000000e+000
    outer loop
      vertex  2.859935e-013 -1.680000e+002  5.200000e+001
      vertex  2.842171e-013 -1.800000e+002  5.200000e+001
      vertex  1.680000e+002 -1.680000e+002  5.200000e+001
    endloop
  endfacet
  facet normal  0.000000e+000  0.000000e+000  1.000000e+000
    outer loop
      vertex  1.680000e+002 -1.680000e+002  5.200000e+001
      vertex  2.842171e-013 -1.800000e+002  5.200000e+001
      vertex  1.800000e+002 -1.800000e+002  5.200000e+001
    endloop
  endfacet
  facet normal  0.000000e+000  0.000000e+000  1.000000e+000
    outer loop
      vertex  1.680000e+002 -1.680000e+002  5.200000e+001
      vertex  1.800000e+002 -1.800000e+002  5.200000e+001
      vertex  1.680000e+002  1.680000e+002  5.200000e+001
    endloop
  endfacet
  facet normal  -0.000000e+000  0.000000e+000  1.000000e+000
    outer loop
      vertex  1.680000e+002  1.680000e+002  5.200000e+001
      vertex  1.800000e+002 -1.800000e+002  5.200000e+001
      vertex  1.800000e+002  1.800000e+002  5.200000e+001
    endloop
  endfacet
  facet normal  0.000000e+000  0.000000e+000  1.000000e+000
    outer loop
      vertex  1.680000e+002  1.680000e+002  5.200000e+001
      vertex  1.800000e+002  1.800000e+002  5.200000e+001
      vertex -1.680000e+002  1.680000e+002  5.200000e+001
    endloop
  endfacet
  facet normal  0.000000e+000  -0.000000e+000  1.000000e+000
    outer loop
      vertex -1.680000e+002  1.680000e+002  5.200000e+001
      vertex  1.800000e+002  1.800000e+002  5.200000e+001
      vertex -1.800000e+002  1.800000e+002  5.200000e+001
    endloop
  endfacet
  facet normal  0.000000e+000  0.000000e+000  1.000000e+000
    outer loop
      vertex -1.680000e+002  1.680000e+002  5.200000e+001
      vertex -1.800000e+002  1.800000e+002  5.200000e+001
      vertex -1.680000e+002 -3.480000e+002  5.200000e+001
    endloop
  endfacet
  facet normal  0.000000e+000  0.000000e+000  1.000000e+000
    outer loop
      vertex -1.680000e+002 -3.480000e+002  5.200000e+001
      vertex -1.800000e+002  1.800000e+002  5.200000e+001
      vertex -1.800000e+002 -3.480000e+002  5.200000e+001
    endloop
  endfacet
  facet normal  0.000000e+000  0.000000e+000  1.000000e+000
    outer loop
      vertex  3.480000e+002 -3.480000e+002  5.200000e+001
      vertex  3.600000e+002 -3.600000e+002  5.200000e+001
      vertex  3.480000e+002  3.480000e+002  5.200000e+001
    endloop
  endfacet
  facet normal  -0.000000e+000  0.000000e+000  1.000000e+000
    outer loop
      vertex  3.480000e+002  3.480000e+002  5.200000e+001
      vertex  3.600000e+002 -3.600000e+002  5.200000e+001
      vertex  3.600000e+002  3.600000e+002  5.200000e+001
    endloop
  endfacet
  facet normal  0.000000e+000  0.000000e+000  1.000000e+000
    outer loop
      vertex  3.480000e+002  3.480000e+002  5.200000e+001
      vertex  3.600000e+002  3.600000e+002  5.200000e+001
      vertex -3.480000e+002  3.480000e+002  5.200000e+001
    endloop
  endfacet
  facet normal  0.000000e+000  -0.000000e+000  1.000000e+000
    outer loop
      vertex -3.480000e+002  3.480000e+002  5.200000e+001
      vertex  3.600000e+002  3.600000e+002  5.200000e+001
      vertex -3.600000e+002  3.600000e+002  5.200000e+001
    endloop
  endfacet
  facet normal  0.000000e+000  1.000000e+000  0.000000e+000
    outer loop
      vertex -3.600000e+002  3.600000e+002  5.200000e+001
      vertex  3.600000e+002  3.600000e+002  5.200000e+001
      vertex -3.600000e+002  3.600000e+002  0.000000e+000
    endloop
  endfacet
  facet normal  0.000000e+000  1.000000e+000  0.000000e+000
    outer loop
      vertex -3.600000e+002  3.600000e+002  0.000000e+000
      vertex  3.600000e+002  3.600000e+002  5.200000e+001
      vertex  3.600000e+002  3.600000e+002  0.000000e+000
    endloop
  endfacet
  facet normal -1.000000e+000  -0.000000e+000  0.000000e+000
    outer loop
      vertex -3.600000e+002 -3.600000e+002  5.200000e+001
      vertex -3.600000e+002  3.600000e+002  5.200000e+001
      vertex -3.600000e+002 -3.600000e+002  0.000000e+000
    endloop
  endfacet
  facet normal -1.000000e+000  0.000000e+000  0.000000e+000
    outer loop
      vertex -3.600000e+002 -3.600000e+002  0.000000e+000
      vertex -3.600000e+002  3.600000e+002  5.200000e+001
      vertex -3.600000e+002  3.600000e+002  0.000000e+000
    endloop
  endfacet
  facet normal  1.000000e+000  -0.000000e+000  0.000000e+000
    outer loop
      vertex  3.600000e+002  3.600000e+002  5.200000e+001
      vertex  3.600000e+002 -3.600000e+002  5.200000e+001
      vertex  3.600000e+002  3.600000e+002  0.000000e+000
    endloop
  endfacet
  facet normal  1.000000e+000  0.000000e+000  0.000000e+000
    outer loop
      vertex  3.600000e+002  3.600000e+002  0.000000e+000
      vertex  3.600000e+002 -3.600000e+002  5.200000e+001
      vertex  3.600000e+002 -3.600000e+002  0.000000e+000
    endloop
  endfacet
  facet normal  0.000000e+000 -1.000000e+000  0.000000e+000
    outer loop
      vertex  3.600000e+002 -3.600000e+002  5.200000e+001
      vertex -3.600000e+002 -3.600000e+002  5.200000e+001
      vertex  3.600000e+002 -3.600000e+002  0.000000e+000
    endloop
  endfacet
  facet normal  0.000000e+000 -1.000000e+000  0.000000e+000
    outer loop
      vertex  3.600000e+002 -3.600000e+002  0.000000e+000
      vertex -3.600000e+002 -3.600000e+002  5.200000e+001
      vertex -3.600000e+002 -3.600000e+002  0.000000e+000
    endloop
  endfacet
  facet normal  0.000000e+000  0.000000e+000  1.000000e+000
    outer loop
      vertex -3.480000e+002 -3.480000e+002  2.000000e+000
      vertex -1.800000e+002 -3.480000e+002  2.000000e+000
      vertex -3.480000e+002  3.480000e+002  2.000000e+000
    endloop
  endfacet
  facet normal  0.000000e+000  0.000000e+000  1.000000e+000
    outer loop
      vertex -3.480000e+002  3.480000e+002  2.000000e+000
      vertex -1.800000e+002 -3.480000e+002  2.000000e+000
      vertex -1.800000e+002  1.800000e+002  2.000000e+000
    endloop
  endfacet
  facet normal  0.000000e+000  -0.000000e+000  1.000000e+000
    outer loop
      vertex -3.480000e+002  3.480000e+002  2.000000e+000
      vertex -1.800000e+002  1.800000e+002  2.000000e+000
      vertex  3.480000e+002  3.480000e+002  2.000000e+000
    endloop
  endfacet
  facet normal  0.000000e+000  0.000000e+000  1.000000e+000
    outer loop
      vertex  3.480000e+002  3.480000e+002  2.000000e+000
      vertex -1.800000e+002  1.800000e+002  2.000000e+000
      vertex  1.800000e+002  1.800000e+002  2.000000e+000
    endloop
  endfacet
  facet normal  -0.000000e+000  0.000000e+000  1.000000e+000
    outer loop
      vertex  3.480000e+002  3.480000e+002  2.000000e+000
      vertex  1.800000e+002  1.800000e+002  2.000000e+000
      vertex  3.480000e+002 -3.480000e+002  2.000000e+000
    endloop
  endfacet
  facet normal  0.000000e+000  0.000000e+000  1.000000e+000
    outer loop
      vertex  3.480000e+002 -3.480000e+002  2.000000e+000
      vertex  1.800000e+002  1.800000e+002  2.000000e+000
      vertex  1.800000e+002 -1.800000e+002  2.000000e+000
    endloop
  endfacet
  facet normal  0.000000e+000  0.000000e+000  1.000000e+000
    outer loop
      vertex  3.480000e+002 -3.480000e+002  2.000000e+000
      vertex  1.800000e+002 -1.800000e+002  2.000000e+000
      vertex -1.680000e+002 -3.480000e+002  2.000000e+000
    endloop
  endfacet
  facet normal  0.000000e+000  0.000000e+000  1.000000e+000
    outer loop
      vertex -1.680000e+002 -3.480000e+002  2.000000e+000
      vertex  1.800000e+002 -1.800000e+002  2.000000e+000
      vertex  2.842171e-013 -1.800000e+002  2.000000e+000
    endloop
  endfacet
  facet normal  0.000000e+000  0.000000e+000  1.000000e+000
    outer loop
      vertex -1.680000e+002 -3.480000e+002  2.000000e+000
      vertex  2.842171e-013 -1.800000e+002  2.000000e+000
      vertex -1.680000e+002  1.680000e+002  2.000000e+000
    endloop
  endfacet
  facet normal  0.000000e+000  0.000000e+000  1.000000e+000
    outer loop
      vertex -1.680000e+002  1.680000e+002  2.000000e+000
      vertex  2.842171e-013 -1.800000e+002  2.000000e+000
      vertex  2.859935e-013 -1.680000e+002  2.000000e+000
    endloop
  endfacet
  facet normal  0.000000e+000  -0.000000e+000  1.000000e+000
    outer loop
      vertex -1.680000e+002  1.680000e+002  2.000000e+000
      vertex  2.859935e-013 -1.680000e+002  2.000000e+000
      vertex  1.680000e+002  1.680000e+002  2.000000e+000
    endloop
  endfacet
  facet normal  0.000000e+000  0.000000e+000  1.000000e+000
    outer loop
      vertex  1.680000e+002  1.680000e+002  2.000000e+000
      vertex  2.859935e-013 -1.680000e+002  2.000000e+000
      vertex  1.680000e+002 -1.680000e+002  2.000000e+000
    endloop
  endfacet
  facet normal  0.000000e+000 -1.000000e+000  0.000000e+000
    outer loop
      vertex -3.480000e+002  3.480000e+002  5.200000e+001
      vertex -3.480000e+002  3.480000e+002  2.000000e+000
      vertex  3.480000e+002  3.480000e+002  5.200000e+001
    endloop
  endfacet
  facet normal  0.000000e+000 -1.000000e+000  -0.000000e+000
    outer loop
      vertex  3.480000e+002  3.480000e+002  5.200000e+001
      vertex -3.480000e+002  3.480000e+002  2.000000e+000
      vertex  3.480000e+002  3.480000e+002  2.000000e+000
    endloop
  endfacet
  facet normal  1.000000e+000  0.000000e+000  0.000000e+000
    outer loop
      vertex -3.480000e+002 -3.480000e+002  5.200000e+001
      vertex -3.480000e+002 -3.480000e+002  2.000000e+000
      vertex -3.480000e+002  3.480000e+002  5.200000e+001
    endloop
  endfacet
  facet normal  1.000000e+000  0.000000e+000  0.000000e+000
    outer loop
      vertex -3.480000e+002  3.480000e+002  5.200000e+001
      vertex -3.480000e+002 -3.480000e+002  2.000000e+000
      vertex -3.480000e+002  3.480000e+002  2.000000e+000
    endloop
  endfacet
  facet normal  0.000000e+000  1.000000e+000  -0.000000e+000
    outer loop
      vertex -1.800000e+002 -3.480000e+002  5.200000e+001
      vertex -1.800000e+002 -3.480000e+002  2.000000e+000
      vertex -3.480000e+002 -3.480000e+002  5.200000e+001
    endloop
  endfacet
  facet normal  0.000000e+000  1.000000e+000  0.000000e+000
    outer loop
      vertex -3.480000e+002 -3.480000e+002  5.200000e+001
      vertex -1.800000e+002 -3.480000e+002  2.000000e+000
      vertex -3.480000e+002 -3.480000e+002  2.000000e+000
    endloop
  endfacet
  facet normal -1.000000e+000  -0.000000e+000  0.000000e+000
    outer loop
      vertex -1.800000e+002 -3.480000e+002  5.200000e+001
      vertex -1.800000e+002  1.800000e+002  5.200000e+001
      vertex -1.800000e+002 -3.480000e+002  2.000000e+000
    endloop
  endfacet
  facet normal -1.000000e+000  0.000000e+000  0.000000e+000
    outer loop
      vertex -1.800000e+002 -3.480000e+002  2.000000e+000
      vertex -1.800000e+002  1.800000e+002  5.200000e+001
      vertex -1.800000e+002  1.800000e+002  2.000000e+000
    endloop
  endfacet
  facet normal  0.000000e+000  1.000000e+000  0.000000e+000
    outer loop
      vertex -1.800000e+002  1.800000e+002  5.200000e+001
      vertex  1.800000e+002  1.800000e+002  5.200000e+001
      vertex -1.800000e+002  1.800000e+002  2.000000e+000
    endloop
  endfacet
  facet normal  0.000000e+000  1.000000e+000  0.000000e+000
    outer loop
      vertex -1.800000e+002  1.800000e+002  2.000000e+000
      vertex  1.800000e+002  1.800000e+002  5.200000e+001
      vertex  1.800000e+002  1.800000e+002  2.000000e+000
    endloop
  endfacet
  facet normal  1.000000e+000  -0.000000e+000  0.000000e+000
    outer loop
      vertex  1.800000e+002  1.800000e+002  5.200000e+001
      vertex  1.800000e+002 -1.800000e+002  5.200000e+001
      vertex  1.800000e+002  1.800000e+002  2.000000e+000
    endloop
  endfacet
  facet normal  1.000000e+000  0.000000e+000  0.000000e+000
    outer loop
      vertex  1.800000e+002  1.800000e+002  2.000000e+000
      vertex  1.800000e+002 -1.800000e+002  5.200000e+001
      vertex  1.800000e+002 -1.800000e+002  2.000000e+000
    endloop
  endfacet
  facet normal  0.000000e+000 -1.000000e+000  0.000000e+000
    outer loop
      vertex  1.800000e+002 -1.800000e+002  5.200000e+001
      vertex  2.842171e-013 -1.800000e+002  5.200000e+001
      vertex  1.800000e+002 -1.800000e+002  2.000000e+000
    endloop
  endfacet
  facet normal  0.000000e+000 -1.000000e+000  0.000000e+000
    outer loop
      vertex  1.800000e+002 -1.800000e+002  2.000000e+000
      vertex  2.842171e-013 -1.800000e+002  5.200000e+001
      vertex  2.842171e-013 -1.800000e+002  2.000000e+000
    endloop
  endfacet
  facet normal -1.000000e+000  1.480297e-016  0.000000e+000
    outer loop
      vertex  2.842171e-013 -1.800000e+002  2.000000e+000
      vertex  2.842171e-013 -1.800000e+002  5.200000e+001
      vertex  2.859935e-013 -1.680000e+002  2.000000e+000
    endloop
  endfacet
  facet normal -1.000000e+000  1.480297e-016  0.000000e+000
    outer loop
      vertex  2.859935e-013 -1.680000e+002  2.000000e+000
      vertex  2.842171e-013 -1.800000e+002  5.200000e+001
      vertex  2.859935e-013 -1.680000e+002  5.200000e+001
    endloop
  endfacet
  facet normal  0.000000e+000  1.000000e+000  0.000000e+000
    outer loop
      vertex  2.859935e-013 -1.680000e+002  5.200000e+001
      vertex  1.680000e+002 -1.680000e+002  5.200000e+001
      vertex  2.859935e-013 -1.680000e+002  2.000000e+000
    endloop
  endfacet
  facet normal  0.000000e+000  1.000000e+000  0.000000e+000
    outer loop
      vertex  2.859935e-013 -1.680000e+002  2.000000e+000
      vertex  1.680000e+002 -1.680000e+002  5.200000e+001
      vertex  1.680000e+002 -1.680000e+002  2.000000e+000
    endloop
  endfacet
  facet normal -1.000000e+000  -0.000000e+000  0.000000e+000
    outer loop
      vertex  1.680000e+002 -1.680000e+002  5.200000e+001
      vertex  1.680000e+002  1.680000e+002  5.200000e+001
      vertex  1.680000e+002 -1.680000e+002  2.000000e+000
    endloop
  endfacet
  facet normal -1.000000e+000  0.000000e+000  0.000000e+000
    outer loop
      vertex  1.680000e+002 -1.680000e+002  2.000000e+000
      vertex  1.680000e+002  1.680000e+002  5.200000e+001
      vertex  1.680000e+002  1.680000e+002  2.000000e+000
    endloop
  endfacet
  facet normal  0.000000e+000 -1.000000e+000  0.000000e+000
    outer loop
      vertex  1.680000e+002  1.680000e+002  5.200000e+001
      vertex -1.680000e+002  1.680000e+002  5.200000e+001
      vertex  1.680000e+002  1.680000e+002  2.000000e+000
    endloop
  endfacet
  facet normal  0.000000e+000 -1.000000e+000  0.000000e+000
    outer loop
      vertex  1.680000e+002  1.680000e+002  2.000000e+000
      vertex -1.680000e+002  1.680000e+002  5.200000e+001
      vertex -1.680000e+002  1.680000e+002  2.000000e+000
    endloop
  endfacet
  facet normal  9.999999e-001  -0.000000e+000  0.000000e+000
    outer loop
      vertex -1.680000e+002  1.680000e+002  5.200000e+001
      vertex -1.680000e+002 -3.480000e+002  5.200000e+001
      vertex -1.680000e+002  1.680000e+002  2.000000e+000
    endloop
  endfacet
  facet normal  9.999999e-001  0.000000e+000  0.000000e+000
    outer loop
      vertex -1.680000e+002  1.680000e+002  2.000000e+000
      vertex -1.680000e+002 -3.480000e+002  5.200000e+001
      vertex -1.680000e+002 -3.480000e+002  2.000000e+000
    endloop
  endfacet
  facet normal  0.000000e+000  9.999999e-001  -0.000000e+000
    outer loop
      vertex  3.480000e+002 -3.480000e+002  5.200000e+001
      vertex  3.480000e+002 -3.480000e+002  2.000000e+000
      vertex -1.680000e+002 -3.480000e+002  5.200000e+001
    endloop
  endfacet
  facet normal  0.000000e+000  9.999999e-001  0.000000e+000
    outer loop
      vertex -1.680000e+002 -3.480000e+002  5.200000e+001
      vertex  3.480000e+002 -3.480000e+002  2.000000e+000
      vertex -1.680000e+002 -3.480000e+002  2.000000e+000
    endloop
  endfacet
  facet normal -1.000000e+000  0.000000e+000  0.000000e+000
    outer loop
      vertex  3.480000e+002  3.480000e+002  5.200000e+001
      vertex  3.480000e+002  3.480000e+002  2.000000e+000
      vertex  3.480000e+002 -3.480000e+002  5.200000e+001
    endloop
  endfacet
  facet normal -1.000000e+000  0.000000e+000  0.000000e+000
    outer loop
      vertex  3.480000e+002 -3.480000e+002  5.200000e+001
      vertex  3.480000e+002  3.480000e+002  2.000000e+000
      vertex  3.480000e+002 -3.480000e+002  2.000000e+000
    endloop
  endfacet
endsolid CATIA STL
