<svg xmlns="http://www.w3.org/2000/svg" xmlns:xlink="http://www.w3.org/1999/xlink" xmlns:lucid="lucid" width="3122" height="2294"><g transform="translate(-819 -239)" lucid:page-tab-id="0_0"><path d="M0 0h5065.17v2836.6H0z" fill="#fff"/><path d="M820 256a16 16 0 0 1 16-16h84v320H820zM820 560h100v592H820zM820 1152h100v1380H820zM820 2532h100-100z" stroke="#000" stroke-width="2" fill="#fff"/><path d="M920 240h3004a16 16 0 0 1 16 16v304H920zM920 560h3020v592H920zM920 1152h3020v1380H920zM920 2532h3020H920z" stroke="#000" stroke-width="2" fill="none"/><use xlink:href="#a" transform="matrix(-1.8369701987210297e-16,-1,1,-1.8369701987210297e-16,820,559.9999999999999) translate(113.7841796875 57.275390625)"/><use xlink:href="#b" transform="matrix(-1.8369701987210297e-16,-1,1,-1.8369701987210297e-16,820,1152) translate(185.287109375 57.275390625)"/><use xlink:href="#c" transform="matrix(-1.8369701987210297e-16,-1,1,-1.8369701987210297e-16,820.0000000000001,2532) translate(641.103515625 57.275390625)"/><path d="M1060 380c0 16.57-13.43 30-30 30s-30-13.43-30-30 13.43-30 30-30 30 13.43 30 30z" stroke="#008a0e" stroke-width="4" fill="#e3fae3"/><use xlink:href="#d" transform="matrix(1,0,0,1,1000,412) translate(4.853515625 19.375)"/><path d="M1064.5 380h51.76" stroke="#333" stroke-width="4" fill="none"/><path d="M1064.55 381.98h-2.7l.15-1.93-.07-2.03h2.62z" stroke="#333" stroke-width=".05" fill="#333"/><path d="M1132.53 380l-14.27 4.63v-9.26z" stroke="#333" stroke-width="4" fill="#333"/><path d="M1140 328a8 8 0 0 1 8-8h144a8 8 0 0 1 8 8v104a8 8 0 0 1-8 8h-144a8 8 0 0 1-8-8z" stroke="#000" stroke-width="4" fill="#fff"/><use xlink:href="#e" transform="matrix(1,0,0,1,1140,320) translate(5.01 52.65625)"/><use xlink:href="#f" transform="matrix(1,0,0,1,1140,320) translate(5.01 81.6953125)"/><path d="M1303 380h53.26" stroke="#333" stroke-width="4" fill="none"/><path d="M1303.05 381.98H1302v-3.96h1.05z" stroke="#333" stroke-width=".05" fill="#333"/><path d="M1372.53 380l-14.27 4.63v-9.26z" stroke="#333" stroke-width="4" fill="#333"/><path d="M1380 328a8 8 0 0 1 8-8h144a8 8 0 0 1 8 8v104a8 8 0 0 1-8 8h-144a8 8 0 0 1-8-8z" stroke="#000" stroke-width="4" fill="#fff"/><use xlink:href="#g" transform="matrix(1,0,0,1,1380,320) translate(5.01 52.65625)"/><use xlink:href="#h" transform="matrix(1,0,0,1,1380,320) translate(109.531484375 52.65625)"/><use xlink:href="#i" transform="matrix(1,0,0,1,1380,320) translate(5.01 81.6953125)"/><path d="M1543 380h53.26" stroke="#333" stroke-width="4" fill="none"/><path d="M1543.05 381.98H1542v-3.96h1.05z" stroke="#333" stroke-width=".05" fill="#333"/><path d="M1612.53 380l-14.27 4.63v-9.26z" stroke="#333" stroke-width="4" fill="#333"/><path d="M1620 328a8 8 0 0 1 8-8h144a8 8 0 0 1 8 8v104a8 8 0 0 1-8 8h-144a8 8 0 0 1-8-8z" stroke="#000" stroke-width="4" fill="#fff"/><use xlink:href="#j" transform="matrix(1,0,0,1,1620,320) translate(5.01 67.1875)"/><use xlink:href="#k" transform="matrix(1,0,0,1,1620,320) translate(67.695546875 67.1875)"/><path d="M1783 380h53.26" stroke="#333" stroke-width="4" fill="none"/><path d="M1783.05 381.98H1782v-3.96h1.05z" stroke="#333" stroke-width=".05" fill="#333"/><path d="M1852.53 380l-14.27 4.63v-9.26z" stroke="#333" stroke-width="4" fill="#333"/><path d="M1860 328a8 8 0 0 1 8-8h164a8 8 0 0 1 8 8v104a8 8 0 0 1-8 8h-164a8 8 0 0 1-8-8z" stroke="#000" stroke-width="4" fill="#fff"/><use xlink:href="#l" transform="matrix(1,0,0,1,1860,320) translate(5.01 38.125)"/><use xlink:href="#m" transform="matrix(1,0,0,1,1860,320) translate(5.01 67.1640625)"/><use xlink:href="#n" transform="matrix(1,0,0,1,1860,320) translate(99.121328125 67.1640625)"/><use xlink:href="#o" transform="matrix(1,0,0,1,1860,320) translate(5.01 96.203125)"/><path d="M1620 959.52a8 8 0 0 1 8-8h144a8 8 0 0 1 8 8v104a8 8 0 0 1-8 8h-144a8 8 0 0 1-8-8z" stroke="#000" stroke-width="4" fill="#fff"/><use xlink:href="#p" transform="matrix(1,0,0,1,1620,951.5204166666666) translate(5.01 52.65625)"/><use xlink:href="#q" transform="matrix(1,0,0,1,1620,951.5204166666666) translate(5.01 81.6953125)"/><path d="M1620 648a8 8 0 0 1 8-8h144a8 8 0 0 1 8 8v104a8 8 0 0 1-8 8h-144a8 8 0 0 1-8-8z" stroke="#000" stroke-width="4" fill="#fff"/><use xlink:href="#r" transform="matrix(1,0,0,1,1620,640) translate(5.01 38.125)"/><use xlink:href="#s" transform="matrix(1,0,0,1,1620,640) translate(5.01 67.1640625)"/><use xlink:href="#t" transform="matrix(1,0,0,1,1620,640) translate(96.63109375 67.1640625)"/><use xlink:href="#u" transform="matrix(1,0,0,1,1620,640) translate(5.01 96.203125)"/><path d="M1783 700h63.26" stroke="#333" stroke-width="4" fill="none"/><path d="M1783.05 701.98H1782V698h1.05z" stroke="#333" stroke-width=".05" fill="#333"/><path d="M1862.53 700l-14.27 4.63v-9.26z" stroke="#333" stroke-width="4" fill="#333"/><path d="M1870 648a8 8 0 0 1 8-8h144a8 8 0 0 1 8 8v104a8 8 0 0 1-8 8h-144a8 8 0 0 1-8-8z" stroke="#000" stroke-width="4" fill="#fff"/><use xlink:href="#v" transform="matrix(1,0,0,1,1870,640) translate(5.01 67.1875)"/><use xlink:href="#w" transform="matrix(1,0,0,1,1870,640) translate(41.133046875 67.1875)"/><path d="M2033 700h63.26" stroke="#333" stroke-width="4" fill="none"/><path d="M2033.05 701.98H2032V698h1.05z" stroke="#333" stroke-width=".05" fill="#333"/><path d="M2112.53 700l-14.27 4.63v-9.26z" stroke="#333" stroke-width="4" fill="#333"/><path d="M2120 648a8 8 0 0 1 8-8h144a8 8 0 0 1 8 8v104a8 8 0 0 1-8 8h-144a8 8 0 0 1-8-8z" stroke="#000" stroke-width="4" fill="#fff"/><use xlink:href="#x" transform="matrix(1,0,0,1,2120,640) translate(5.01 52.65625)"/><use xlink:href="#y" transform="matrix(1,0,0,1,2120,640) translate(93.135 52.65625)"/><use xlink:href="#z" transform="matrix(1,0,0,1,2120,640) translate(5.01 81.6953125)"/><path d="M2855.88 700l64.12-60 64.12 60-64.12 60z" stroke="#113667" stroke-width="4" fill="#fcfcca"/><path d="M2600 648a8 8 0 0 1 8-8h144a8 8 0 0 1 8 8v104a8 8 0 0 1-8 8h-144a8 8 0 0 1-8-8z" stroke="#000" stroke-width="4" fill="#fff"/><use xlink:href="#A" transform="matrix(1,0,0,1,2600,640) translate(5.01 52.65625)"/><use xlink:href="#B" transform="matrix(1,0,0,1,2600,640) translate(5.01 81.6953125)"/><path d="M1620 2139.52a8 8 0 0 1 8-8h144a8 8 0 0 1 8 8v104a8 8 0 0 1-8 8h-144a8 8 0 0 1-8-8z" stroke="#000" stroke-width="4" fill="#fff"/><use xlink:href="#C" transform="matrix(1,0,0,1,1620,2131.5204166666667) translate(5.01 52.65625)"/><use xlink:href="#m" transform="matrix(1,0,0,1,1620,2131.5204166666667) translate(5.01 81.6953125)"/><use xlink:href="#D" transform="matrix(1,0,0,1,1620,2131.5204166666667) translate(99.121328125 81.6953125)"/><path d="M2600 1239.52a8 8 0 0 1 8-8h144a8 8 0 0 1 8 8v104a8 8 0 0 1-8 8h-144a8 8 0 0 1-8-8z" stroke="#000" stroke-width="4" fill="#fff"/><use xlink:href="#E" transform="matrix(1,0,0,1,2600,1231.5204166666667) translate(5.01 55)"/><use xlink:href="#F" transform="matrix(1,0,0,1,2600,1231.5204166666667) translate(89.394765625 55)"/><use xlink:href="#G" transform="matrix(1,0,0,1,2600,1231.5204166666667) translate(5.01 79.19921875)"/><use xlink:href="#H" transform="matrix(1,0,0,1,2600,1231.5204166666667) translate(34.54125 79.19921875)"/><path d="M2283 700h53.26" stroke="#333" stroke-width="4" fill="none"/><path d="M2283.05 701.98H2282V698h1.05z" stroke="#333" stroke-width=".05" fill="#333"/><path d="M2352.53 700l-14.27 4.63v-9.26z" stroke="#333" stroke-width="4" fill="#333"/><path d="M2360 648a8 8 0 0 1 8-8h144a8 8 0 0 1 8 8v104a8 8 0 0 1-8 8h-144a8 8 0 0 1-8-8z" stroke="#000" stroke-width="4" fill="#fff"/><use xlink:href="#I" transform="matrix(1,0,0,1,2360,640) translate(5.01 52.65625)"/><use xlink:href="#J" transform="matrix(1,0,0,1,2360,640) translate(88.1740625 52.65625)"/><use xlink:href="#K" transform="matrix(1,0,0,1,2360,640) translate(5.01 81.6953125)"/><use xlink:href="#L" transform="matrix(1,0,0,1,2360,640) translate(51.5725 81.6953125)"/><use xlink:href="#M" transform="matrix(1,0,0,1,2360,640) translate(110.07835937499999 81.6953125)"/><path d="M1950 443v18.33a12 12 0 0 1-12 12h-226a12 12 0 0 0-12 12v130.93" stroke="#333" stroke-width="4" fill="none"/><path d="M1951.97 443.05h-3.94V442h3.94z" stroke="#333" stroke-width=".05" fill="#333"/><path d="M1700 632.53l-4.63-14.27h9.27z" stroke="#333" stroke-width="4" fill="#333"/><path d="M2523 700h53.26" stroke="#333" stroke-width="4" fill="none"/><path d="M2523.05 701.98H2522V698h1.05z" stroke="#333" stroke-width=".05" fill="#333"/><path d="M2592.53 700l-14.27 4.63v-9.26z" stroke="#333" stroke-width="4" fill="#333"/><path d="M2763 700h69.4" stroke="#333" stroke-width="4" fill="none"/><path d="M2763.05 701.98H2762V698h1.05z" stroke="#333" stroke-width=".05" fill="#333"/><path d="M2848.68 700l-14.27 4.63v-9.26z" stroke="#333" stroke-width="4" fill="#333"/><path d="M2910.2 504.86l2.12.5 2.03.85 1.87 1.16 1.67 1.42 1.4 1.67 1.16 1.87.84 2.03.5 2.13.17 2.1v118.74h-3.94V518.74l-.13-1.64-.37-1.53-.6-1.45-.82-1.34-1.02-1.2-1.2-1.02-1.33-.82-1.45-.6-1.53-.37-1.65-.13h-29.35v-3.95h29.5zm-69.92 3.78H1935.4l-1.63.13-1.53.37-1.45.6-1.36.82-1.2 1.02-1 1.2-.83 1.34-.6 1.45-.36 1.53-.13 1.64v97.52h-3.94V518.6l.16-2.12.52-2.13.84-2.03 1.14-1.87 1.43-1.67 1.66-1.42 1.9-1.15 2-.83 2.15-.5 2.1-.18h905.03z" stroke="#333" stroke-width=".05" fill="#333"/><path d="M2918.03 639.1v-1.84h1.97zm3.94 0l-1.97-1.84h1.97z" fill="#333"/><path stroke="#333" stroke-width=".05" fill="#333"/><path d="M1923.33 632.53l-4.63-14.27h9.27z" fill="#333"/><path d="M1923.33 638.92l-7.35-22.63h14.7zm-1.9-18.68l1.9 5.9 1.92-5.9z" stroke="#333" stroke-width=".05" fill="#333"/><use xlink:href="#N" transform="matrix(1,0,0,1,2840.2826996057343,494.56705729166663) translate(0.004999999999999005 19.375)"/><path d="M2921.97 999.6l-.16 2.1-.5 2.14-.84 2.03-1.15 1.87-1.4 1.67-1.68 1.43-1.87 1.15-2.03.84-2.13.5-2.12.17H1803.74v-3.96h1104.18l1.65-.12 1.53-.37 1.45-.6 1.34-.82 1.18-1.02 1.03-1.2.83-1.33.6-1.45.37-1.53.13-1.66V799.72h3.94zm0-224.08h-3.94v-12.84h3.94z" stroke="#333" stroke-width=".05" fill="#333"/><path d="M2921.97 762.74H2920l1.97-1.85zm-1.97 0h-1.97v-1.85z" fill="#333"/><path stroke="#333" stroke-width=".05" fill="#333"/><path d="M1801.74 1016.16l-14.27-4.64 14.27-4.63z" fill="#333"/><path d="M1803.7 1018.87l-22.62-7.35 22.63-7.35zm-9.84-7.35l5.9 1.92v-3.84z" stroke="#333" stroke-width=".05" fill="#333"/><use xlink:href="#O" transform="matrix(1,0,0,1,2851.2109375,775.5233086887433) translate(0.0049999999999954525 19.375)"/><use xlink:href="#P" transform="matrix(1,0,0,1,2851.2109375,775.5233086887433) translate(71.0596875 19.375)"/><path d="M2680 763v242.52c-3.3 0-6 2.7-6 6s2.7 6 6 6v190.26" stroke="#333" stroke-width="4" fill="none"/><path d="M2681.97 763.05h-3.94V762h3.94z" stroke="#333" stroke-width=".05" fill="#333"/><path d="M2680 1224.05l-4.64-14.27h9.28z" stroke="#333" stroke-width="4" fill="#333"/><path d="M2680 1354.52v53.57" stroke="#333" stroke-width="4" fill="none"/><path d="M2681.97 1354.57h-3.94v-1.05h3.94z" stroke="#333" stroke-width=".05" fill="#333"/><path d="M2680 1424.36l-4.64-14.27h9.28z" stroke="#333" stroke-width="4" fill="#333"/><path d="M2607.13 1501.52l72.87-70 72.87 70-72.87 70z" stroke="#113667" stroke-width="4" fill="#fcfcca"/><path d="M2681.97 1699.44l.13 1.65.37 1.52.6 1.45.82 1.34 1.02 1.2 1.2 1.03 1.33.82 1.45.6 1.53.37 1.65.13h65.95v3.94h-66.1l-2.12-.17-2.12-.5-2.03-.85-1.87-1.15-1.67-1.42-1.4-1.66-1.16-1.87-.84-2.03-.5-2.13-.17-2.1v-103.3h3.94zm134.3 10.1v3.95h-23.04v-3.95z" stroke="#333" stroke-width=".05" fill="#333"/><path fill="#333"/><path stroke="#333" stroke-width=".05" fill="#333"/><path d="M2832.53 1711.52l-14.27 4.64v-9.28z" fill="#333"/><path d="M2838.92 1711.52l-22.63 7.35v-14.7zm-18.68 1.92l5.9-1.92-5.9-1.92z" stroke="#333" stroke-width=".05" fill="#333"/><use xlink:href="#Q" transform="matrix(1,0,0,1,2758.0353061225087,1699.4208072916667) translate(0.004999999999999005 19.375)"/><path d="M2840 1659.52a8 8 0 0 1 8-8h144a8 8 0 0 1 8 8v104a8 8 0 0 1-8 8h-144a8 8 0 0 1-8-8z" stroke="#000" stroke-width="4" fill="#fff"/><use xlink:href="#R" transform="matrix(1,0,0,1,2840,1651.5204166666667) translate(9.692500000000004 52.65625)"/><use xlink:href="#S" transform="matrix(1,0,0,1,2840,1651.5204166666667) translate(92.04601562500001 52.65625)"/><use xlink:href="#T" transform="matrix(1,0,0,1,2840,1651.5204166666667) translate(34.145625 81.6953125)"/><use xlink:href="#U" transform="matrix(1,0,0,1,2840,1651.5204166666667) translate(63.57921875 81.6953125)"/><path d="M2920 1774.52v53.26" stroke="#333" stroke-width="4" fill="none"/><path d="M2921.97 1774.57h-3.94v-1.05h3.94z" stroke="#333" stroke-width=".05" fill="#333"/><path d="M2920 1844.05l-4.64-14.27h9.28z" stroke="#333" stroke-width="4" fill="#333"/><path d="M2840 1859.52a8 8 0 0 1 8-8h144a8 8 0 0 1 8 8v104a8 8 0 0 1-8 8h-144a8 8 0 0 1-8-8z" stroke="#000" stroke-width="4" fill="#fff"/><use xlink:href="#V" transform="matrix(1,0,0,1,2840,1851.5204166666667) translate(50.8106640625 38.125)"/><use xlink:href="#W" transform="matrix(1,0,0,1,2840,1851.5204166666667) translate(11.762812500000004 67.1640625)"/><use xlink:href="#X" transform="matrix(1,0,0,1,2840,1851.5204166666667) translate(125.02453125000001 67.1640625)"/><use xlink:href="#Y" transform="matrix(1,0,0,1,2840,1851.5204166666667) translate(39.765742187499995 96.203125)"/><path d="M2595.27 1713.5h-51.53v-3.95h51.53zm86.7-13.9l-.16 2.1-.5 2.14-.84 2.03-1.15 1.87-1.4 1.67-1.68 1.43-1.87 1.15-2.03.84-2.13.5-2.12.17h-34.52v-3.95h34.36l1.65-.13 1.53-.37 1.45-.6 1.34-.82 1.18-1.03 1.03-1.2.83-1.33.6-1.45.37-1.53.13-1.66V1596.3h3.94z" stroke="#333" stroke-width=".05" fill="#333"/><path fill="#333"/><path stroke="#333" stroke-width=".05" fill="#333"/><path d="M2541.74 1716.16l-14.27-4.64 14.27-4.63z" fill="#333"/><path d="M2543.7 1718.87l-22.62-7.35 22.63-7.35zm-9.84-7.35l5.9 1.92v-3.84z" stroke="#333" stroke-width=".05" fill="#333"/><use xlink:href="#N" transform="matrix(1,0,0,1,2595.2728834025916,1699.4208072916667) translate(0.004999999999999005 19.375)"/><use xlink:href="#Z" transform="matrix(1,0,0,1,2595.048828125,1572.1141453489709) translate(0.0049999999999954525 19.375)"/><use xlink:href="#aa" transform="matrix(1,0,0,1,2595.048828125,1572.1141453489709) translate(83.901484375 19.375)"/><path d="M2360 1659.52a8 8 0 0 1 8-8h144a8 8 0 0 1 8 8v104a8 8 0 0 1-8 8h-144a8 8 0 0 1-8-8z" stroke="#000" stroke-width="4" fill="#fff"/><g><use xlink:href="#ab" transform="matrix(1,0,0,1,2360,1651.5204166666667) translate(15.478632812500004 52.65625)"/><use xlink:href="#ac" transform="matrix(1,0,0,1,2360,1651.5204166666667) translate(105.83996093750001 52.65625)"/><use xlink:href="#G" transform="matrix(1,0,0,1,2360,1651.5204166666667) translate(32.690546875 81.6953125)"/><use xlink:href="#ad" transform="matrix(1,0,0,1,2360,1651.5204166666667) translate(62.221796875 81.6953125)"/></g><path d="M2357 1711.52h-395a12 12 0 0 1-12-12v-682c-3.3 0-6-2.7-6-6s2.7-6 6-6V783.74" stroke="#333" stroke-width="4" fill="none"/><path d="M2358 1713.5h-1.05v-3.95h1.05z" stroke="#333" stroke-width=".05" fill="#333"/><path d="M1950 767.47l4.63 14.27h-9.27z" stroke="#333" stroke-width="4" fill="#333"/><path d="M1700 1074.52v1033.26" stroke="#333" stroke-width="4" fill="none"/><path d="M1701.97 1074.57h-3.94v-1.05h3.94z" stroke="#333" stroke-width=".05" fill="#333"/><path d="M1700 2124.05l-4.63-14.27h9.27z" stroke="#333" stroke-width="4" fill="#333"/><path d="M3161.97 2479.6l-.16 2.1-.5 2.14-.84 2.03-1.15 1.87-1.4 1.67-1.68 1.43-1.87 1.15-2.03.84-2.13.5-2.12.17H1711.92l-2.1-.17-2.14-.5-2.03-.85-1.87-1.15-1.67-1.42-1.4-1.66-1.16-1.87-.84-2.03-.5-2.13-.17-2.1v-225.08h3.94v224.92l.13 1.65.37 1.52.6 1.45.83 1.34 1.02 1.2 1.2 1.03 1.33.82 1.45.6 1.53.37 1.65.13h1435.84l1.65-.13 1.53-.37 1.45-.6 1.34-.82 1.18-1.03 1.03-1.2.83-1.33.6-1.45.37-1.53.13-1.66V463.74h3.94z" stroke="#333" stroke-width=".05" fill="#333"/><path d="M1701.97 2254.57h-3.94v-1.05h3.94z" fill="#333"/><path stroke="#333" stroke-width=".05" fill="#333"/><path d="M3164.64 461.74h-9.28l4.64-14.27z" fill="#333"/><path d="M3167.35 463.7h-14.7l7.35-22.62zm-9.27-3.94h3.84l-1.92-5.9z" stroke="#333" stroke-width=".05" fill="#333"/><path d="M3080 328a8 8 0 0 1 8-8h144a8 8 0 0 1 8 8v104a8 8 0 0 1-8 8h-144a8 8 0 0 1-8-8z" stroke="#000" stroke-width="4" fill="#fff"/><g><use xlink:href="#l" transform="matrix(1,0,0,1,3080,320) translate(5.01 38.125)"/><use xlink:href="#m" transform="matrix(1,0,0,1,3080,320) translate(5.01 67.1640625)"/><use xlink:href="#n" transform="matrix(1,0,0,1,3080,320) translate(99.121328125 67.1640625)"/><use xlink:href="#o" transform="matrix(1,0,0,1,3080,320) translate(5.01 96.203125)"/></g><path d="M3243 380h53.26" stroke="#333" stroke-width="4" fill="none"/><path d="M3243.05 381.98H3242v-3.96h1.05z" stroke="#333" stroke-width=".05" fill="#333"/><path d="M3312.53 380l-14.27 4.63v-9.26z" stroke="#333" stroke-width="4" fill="#333"/><path d="M3380 380c0 16.57-13.43 30-30 30s-30-13.43-30-30 13.43-30 30-30 30 13.43 30 30z" stroke="#000" stroke-width="4" fill="#fff"/><g><use xlink:href="#ae" transform="matrix(1,0,0,1,3320,412) translate(12.9150390625 19.375)"/></g><path d="M2920 1974.52v133.26" stroke="#333" stroke-width="4" fill="none"/><path d="M2921.97 1974.57h-3.94v-1.05h3.94z" stroke="#333" stroke-width=".05" fill="#333"/><path d="M2920 2124.05l-4.64-14.27h9.28z" stroke="#333" stroke-width="4" fill="#333"/><path d="M2840 2139.52a8 8 0 0 1 8-8h144a8 8 0 0 1 8 8v104a8 8 0 0 1-8 8h-144a8 8 0 0 1-8-8z" stroke="#000" stroke-width="4" fill="#fff"/><g><use xlink:href="#af" transform="matrix(1,0,0,1,2840,2131.5204166666667) translate(38.754999999999995 38.125)"/><use xlink:href="#ag" transform="matrix(1,0,0,1,2840,2131.5204166666667) translate(6.821406250000004 67.1640625)"/><use xlink:href="#ah" transform="matrix(1,0,0,1,2840,2131.5204166666667) translate(128.9503125 67.1640625)"/><use xlink:href="#f" transform="matrix(1,0,0,1,2840,2131.5204166666667) translate(42.002070312499995 96.203125)"/></g><path d="M2920 2254.52v53.26" stroke="#333" stroke-width="4" fill="none"/><path d="M2921.97 2254.57h-3.94v-1.05h3.94z" stroke="#333" stroke-width=".05" fill="#333"/><path d="M2920 2324.05l-4.64-14.27h9.28z" stroke="#333" stroke-width="4" fill="#333"/><path d="M2840 2339.52a8 8 0 0 1 8-8h144a8 8 0 0 1 8 8v104a8 8 0 0 1-8 8h-144a8 8 0 0 1-8-8z" stroke="#000" stroke-width="4" fill="#fff"/><g><use xlink:href="#ai" transform="matrix(1,0,0,1,2840,2331.5204166666667) translate(10.083125000000004 52.65625)"/><use xlink:href="#aj" transform="matrix(1,0,0,1,2840,2331.5204166666667) translate(68.11046875 52.65625)"/><use xlink:href="#ak" transform="matrix(1,0,0,1,2840,2331.5204166666667) translate(31.743281250000003 81.6953125)"/><use xlink:href="#q" transform="matrix(1,0,0,1,2840,2331.5204166666667) translate(60.84484375 81.6953125)"/></g><defs><path d="M789 20C394 20 94-260 94-744c0-487 300-766 695-766s695 279 695 766c0 485-300 764-695 764zm0-271c231 0 385-174 385-493 0-321-154-495-385-495s-385 175-385 495c0 319 154 493 385 493" id="al"/><path d="M128 418v-1536h295v188h14c41-89 129-202 319-202 248 0 453 193 453 575 0 372-197 576-455 576-183 0-275-108-317-198h-9v597H128zm534-640c156 0 240-139 240-336 0-196-83-334-240-334-154 0-241 131-241 334 0 202 88 336 241 336" id="am"/><path d="M633 22C291 22 81-200 81-553c0-345 210-579 537-579 292 0 525 185 525 567v84H378c7 183 109 277 260 277 105 0 184-46 216-132l272 51C1071-99 893 22 633 22zM380-669h474c-15-146-94-237-233-237-143 0-229 99-241 237" id="an"/><path d="M128 0v-1118h290v195h12c54-169 184-238 367-200v268c-27-8-86-15-130-15-138 0-239 95-239 234V0H128" id="ao"/><path d="M440 22C227 22 68-92 68-313c0-250 202-322 422-343 195-21 271-24 271-105 0-95-63-149-175-149-116 0-187 57-211 129l-275-46c57-194 237-305 487-305 240 0 474 108 474 379V0H777v-155h-10C713-51 605 22 440 22zm85-211c140 0 238-93 238-211v-121c-37 26-156 42-222 51-111 16-185 59-185 149 0 87 70 132 169 132" id="ap"/><path d="M537 19C279 19 81-185 81-557c0-382 206-575 454-575 190 0 278 113 318 202h10v-560h300V0H868v-179h-15C812-89 719 19 537 19zm92-241c153 0 240-134 240-336 0-203-86-334-240-334-158 0-240 138-240 334 0 197 84 336 240 336" id="aq"/><path d="M628 22C291 22 81-210 81-554c0-346 210-578 547-578 336 0 547 232 547 578 0 344-211 576-547 576zm0-236c160 0 242-146 242-341 0-197-82-341-242-341S387-753 387-555c0 195 81 341 241 341" id="ar"/><g id="a"><use transform="matrix(0.009765625,0,0,0.009765625,0,0)" xlink:href="#al"/><use transform="matrix(0.009765625,0,0,0.009765625,15.41015625,0)" xlink:href="#am"/><use transform="matrix(0.009765625,0,0,0.009765625,28.017578125,0)" xlink:href="#an"/><use transform="matrix(0.009765625,0,0,0.009765625,39.931640625,0)" xlink:href="#ao"/><use transform="matrix(0.009765625,0,0,0.009765625,47.802734375,0)" xlink:href="#ap"/><use transform="matrix(0.009765625,0,0,0.009765625,59.4140625,0)" xlink:href="#aq"/><use transform="matrix(0.009765625,0,0,0.009765625,72.021484375,0)" xlink:href="#ar"/><use transform="matrix(0.009765625,0,0,0.009765625,84.287109375,0)" xlink:href="#ao"/></g><path d="M135 0v-1490h468l242 684c30 94 76 293 111 455 34-161 80-360 110-455l238-684h470V0h-307c0-447-3-765 11-1227-122 503-246 788-395 1227H826C676-435 552-717 427-1215c15 453 11 775 11 1215H135" id="as"/><path d="M128 0v-1118h300V0H128zm150-1264c-91 0-165-68-165-154 0-85 74-154 165-154 90 0 165 69 165 154 0 86-75 154-165 154" id="at"/><path d="M628 22C291 22 81-210 81-554c0-346 210-578 547-578 265 0 455 142 497 372l-279 52c-25-116-99-188-215-188-160 0-244 139-244 341 0 200 84 341 244 341 116 0 193-74 217-195l279 51C1085-123 896 22 628 22" id="au"/><path d="M128 0v-1118h278l12 217c60-163 185-234 319-234 143 0 236 81 288 251 63-172 205-251 359-251 205 0 357 138 357 381V0h-301v-697c0-126-76-187-177-187-114 0-184 79-184 196V0H789v-705c0-109-72-179-174-179-106 0-187 74-187 208V0H128" id="av"/><path d="M513 14c-232 0-385-159-385-421v-711h300v659c0 139 76 222 202 222 127 0 217-86 217-234v-647h301V0H864l-4-232C797-74 683 14 513 14" id="aw"/><path d="M572 22C302 22 117-98 78-306l279-48c29 105 101 156 224 156 114 0 185-48 185-115 0-118-228-130-337-155-215-49-322-150-322-317 0-215 187-347 470-347 265 0 424 116 466 298l-266 47c-24-76-87-130-196-130-98 0-174 46-174 113 0 56 38 95 144 117l201 40c216 44 320 143 320 302 0 220-207 367-500 367" id="ax"/><path d="M768-1560L288 224H28l480-1784h260" id="ay"/><path d="M135 0v-1490h980v253H440v416h609v249H440V0H135" id="az"/><path d="M361 0L31-1118h315c68 295 127 523 188 845 63-317 128-551 199-845h276c71 296 131 525 196 846 57-321 119-552 186-846h319L1378 0h-305c-73-261-148-486-204-771C813-484 740-261 666 0H361" id="aA"/><g id="b"><use transform="matrix(0.009765625,0,0,0.009765625,0,0)" xlink:href="#as"/><use transform="matrix(0.009765625,0,0,0.009765625,18.6328125,0)" xlink:href="#at"/><use transform="matrix(0.009765625,0,0,0.009765625,24.052734375,0)" xlink:href="#au"/><use transform="matrix(0.009765625,0,0,0.009765625,35.8203125,0)" xlink:href="#ao"/><use transform="matrix(0.009765625,0,0,0.009765625,43.4765625,0)" xlink:href="#ar"/><use transform="matrix(0.009765625,0,0,0.009765625,55.7421875,0)" xlink:href="#av"/><use transform="matrix(0.009765625,0,0,0.009765625,73.994140625,0)" xlink:href="#ar"/><use transform="matrix(0.009765625,0,0,0.009765625,86.259765625,0)" xlink:href="#aw"/><use transform="matrix(0.009765625,0,0,0.009765625,98.7109375,0)" xlink:href="#ax"/><use transform="matrix(0.009765625,0,0,0.009765625,109.912109375,0)" xlink:href="#an"/><use transform="matrix(0.009765625,0,0,0.009765625,121.826171875,0)" xlink:href="#ay"/><use transform="matrix(0.009765625,0,0,0.009765625,129.58984375,0)" xlink:href="#az"/><use transform="matrix(0.009765625,0,0,0.009765625,141.328125,0)" xlink:href="#at"/><use transform="matrix(0.009765625,0,0,0.009765625,146.748046875,0)" xlink:href="#ao"/><use transform="matrix(0.009765625,0,0,0.009765625,155.0390625,0)" xlink:href="#av"/><use transform="matrix(0.009765625,0,0,0.009765625,173.291015625,0)" xlink:href="#aA"/><use transform="matrix(0.009765625,0,0,0.009765625,190.244140625,0)" xlink:href="#ap"/><use transform="matrix(0.009765625,0,0,0.009765625,201.85546875,0)" xlink:href="#ao"/><use transform="matrix(0.009765625,0,0,0.009765625,209.51171875,0)" xlink:href="#an"/></g><path d="M49 0l509-1490h400L1480 0h-339l-115-346H497L386 0H49zm524-585h374c-75-213-124-402-192-666-66 268-110 453-182 666" id="aB"/><path d="M428-1490V0H128v-1490h300" id="aC"/><path d="M499 418V299c80-5 216 24 216-62 0-44-25-60-89-60h-91l26-158C264-10 81-233 81-554c0-346 210-578 547-578 265 0 455 142 497 372l-279 52c-25-116-99-188-215-188-160 0-244 139-244 341 0 200 84 341 244 341 116 0 193-74 217-195l279 51C1088-140 923 0 685 20l-4 68c126-6 197 51 197 157 0 123-72 173-239 173H499" id="aD"/><path d="M440 22C227 22 68-92 68-313c0-250 202-322 422-343 195-21 271-24 271-105 0-95-63-149-175-149-116 0-187 57-211 129l-275-46c57-194 237-305 487-305 240 0 474 108 474 379V0H777v-155h-10C713-51 605 22 440 22zm290-1304c-128 0-195-103-258-103-42 0-63 39-65 97H242c4-169 84-265 208-265 129 0 189 103 257 103 45 0 63-33 68-97h162c-3 169-89 265-207 265zM525-189c140 0 238-93 238-211v-121c-37 26-156 42-222 51-111 16-185 59-185 149 0 87 70 132 169 132" id="aE"/><g id="c"><use transform="matrix(0.009765625,0,0,0.009765625,0,0)" xlink:href="#aB"/><use transform="matrix(0.009765625,0,0,0.009765625,14.931640625,0)" xlink:href="#am"/><use transform="matrix(0.009765625,0,0,0.009765625,27.5390625,0)" xlink:href="#aC"/><use transform="matrix(0.009765625,0,0,0.009765625,32.958984375,0)" xlink:href="#at"/><use transform="matrix(0.009765625,0,0,0.009765625,38.37890625,0)" xlink:href="#au"/><use transform="matrix(0.009765625,0,0,0.009765625,50.341796875,0)" xlink:href="#ap"/><use transform="matrix(0.009765625,0,0,0.009765625,61.953125,0)" xlink:href="#aD"/><use transform="matrix(0.009765625,0,0,0.009765625,73.916015625,0)" xlink:href="#aE"/><use transform="matrix(0.009765625,0,0,0.009765625,85.52734375,0)" xlink:href="#ar"/></g><path d="M370-1490V0H180v-1490h190" id="aF"/><path d="M338-670V0H158v-1118h173l1 207c72-158 192-221 342-221 226 0 378 139 378 422V0H872v-695c0-172-96-275-252-275-161 0-282 109-282 300" id="aG"/><path d="M158 0v-1118h180V0H158zm12-1264l140-294h201l-194 294H170" id="aH"/><path d="M613 24c-304 0-509-231-509-576 0-350 205-580 509-580 216 0 392 114 453 309l-173 49c-33-115-133-197-280-197-223 0-326 196-326 419 0 220 103 415 326 415 150 0 252-85 285-206l172 49C1010-95 832 24 613 24" id="aI"/><path d="M158 0v-1118h180V0H158zm91-1301c-68 0-125-53-125-119s57-119 125-119c69 0 126 53 126 119s-57 119-126 119" id="aJ"/><path d="M613 24c-304 0-509-231-509-576 0-350 205-580 509-580 305 0 511 230 511 580 0 345-206 576-511 576zm0-161c226 0 329-195 329-415 0-222-103-419-329-419-223 0-326 196-326 419 0 220 103 415 326 415" id="aK"/><g id="d"><use transform="matrix(0.009765625,0,0,0.009765625,0,0)" xlink:href="#aF"/><use transform="matrix(0.009765625,0,0,0.009765625,5.37109375,0)" xlink:href="#aG"/><use transform="matrix(0.009765625,0,0,0.009765625,17.1875,0)" xlink:href="#aH"/><use transform="matrix(0.009765625,0,0,0.009765625,22.03125,0)" xlink:href="#aI"/><use transform="matrix(0.009765625,0,0,0.009765625,33.45703125,0)" xlink:href="#aJ"/><use transform="matrix(0.009765625,0,0,0.009765625,38.30078125,0)" xlink:href="#aK"/></g><path d="M783 20c-382 0-661-292-661-764 0-473 279-766 661-766 302 0 548 182 601 489h-190c-42-204-217-313-411-313-268 0-476 208-476 590 0 381 209 588 476 588 195 0 369-110 411-313h190c-52 303-296 489-601 489" id="aL"/><path d="M678-1118v154H420V0H240v-964H20v-154h220v-149c0-194 155-293 318-293 85 0 141 18 168 30l-50 154c-19-6-47-17-97-17-111 0-159 58-159 166v109h258" id="aM"/><path d="M611 442c-248 0-391-105-460-228l146-94c47 65 117 165 314 165 178 0 307-82 307-266v-224h-17C863-141 792-18 576-18c-268 0-472-195-472-546 0-346 197-568 476-568 216 0 288 133 326 193h17v-179h175V29c0 289-215 413-487 413zm-5-620c203 0 314-146 314-390 0-237-108-403-314-403-213 0-319 180-319 403 0 230 109 390 319 390" id="aN"/><path d="M537 14c-226 0-379-139-379-422v-710h180v695c0 172 97 275 253 275 160 0 281-109 281-300v-670h181V0H879v-209C806-46 684 14 537 14" id="aO"/><path d="M158 0v-1118h174v172h12c41-113 157-188 290-188 26 0 70 2 91 3v181c-11-2-60-10-108-10-161 0-279 109-279 260V0H158" id="aP"/><path d="M471 26C259 26 90-98 90-318c0-256 228-303 435-329 202-27 287-16 287-108 0-139-79-219-234-219-161 0-248 86-283 164l-173-57c86-203 278-265 451-265 150 0 419 46 419 395V0H815v-152h-12C765-73 660 26 471 26zm31-159c199 0 310-134 310-271v-155c-30 35-226 55-295 64-131 17-246 59-246 186 0 116 97 176 231 176" id="aQ"/><g id="e"><use transform="matrix(0.009765625,0,0,0.009765625,0,0)" xlink:href="#aL"/><use transform="matrix(0.009765625,0,0,0.009765625,14.609375,0)" xlink:href="#aK"/><use transform="matrix(0.009765625,0,0,0.009765625,26.6015625,0)" xlink:href="#aG"/><use transform="matrix(0.009765625,0,0,0.009765625,38.41796875,0)" xlink:href="#aM"/><use transform="matrix(0.009765625,0,0,0.009765625,45.8203125,0)" xlink:href="#aJ"/><use transform="matrix(0.009765625,0,0,0.009765625,50.6640625,0)" xlink:href="#aN"/><use transform="matrix(0.009765625,0,0,0.009765625,62.9296875,0)" xlink:href="#aO"/><use transform="matrix(0.009765625,0,0,0.009765625,74.755859375,0)" xlink:href="#aP"/><use transform="matrix(0.009765625,0,0,0.009765625,82.28515625,0)" xlink:href="#aQ"/><use transform="matrix(0.009765625,0,0,0.009765625,93.515625,0)" xlink:href="#aP"/></g><path d="M338-1490V0H158v-1490h180" id="aR"/><path d="M677 24c-213 0-288-135-325-197h-20V0H158v-1490h180v551h14c37-59 106-193 324-193 279 0 474 222 474 576 0 356-194 580-473 580zm-27-161c209 0 317-186 317-421 0-232-105-413-317-413-206 0-314 166-314 413 0 249 111 421 314 421" id="aS"/><path d="M598-1118v154H368v674c0 100 37 144 132 144 23 0 62-6 92-12L629-6c-37 13-88 20-134 20-193 0-307-107-307-290v-688H20v-154h168v-266h180v266h230" id="aT"/><g id="f"><use transform="matrix(0.009765625,0,0,0.009765625,0,0)" xlink:href="#aR"/><use transform="matrix(0.009765625,0,0,0.009765625,4.84375,0)" xlink:href="#aQ"/><use transform="matrix(0.009765625,0,0,0.009765625,16.07421875,0)" xlink:href="#aS"/><use transform="matrix(0.009765625,0,0,0.009765625,28.3203125,0)" xlink:href="#aJ"/><use transform="matrix(0.009765625,0,0,0.009765625,33.1640625,0)" xlink:href="#aP"/><use transform="matrix(0.009765625,0,0,0.009765625,41.005859375,0)" xlink:href="#aJ"/><use transform="matrix(0.009765625,0,0,0.009765625,45.849609375,0)" xlink:href="#aG"/><use transform="matrix(0.009765625,0,0,0.009765625,57.666015625,0)" xlink:href="#aT"/><use transform="matrix(0.009765625,0,0,0.009765625,64.013671875,0)" xlink:href="#aK"/></g><path d="M180 0v-1490h510c348 0 508 209 508 474 0 266-160 477-507 477H370V0H180zm190-706h312c236 0 327-133 327-310 0-176-91-307-329-307H370v617" id="aU"/><path d="M538 24C308 24 148-78 108-271l171-41c32 123 123 178 257 178 156 0 256-77 256-169 0-77-54-128-164-154l-186-44c-203-48-300-148-300-305 0-192 176-326 414-326 230 0 351 112 402 269l-163 42c-31-80-94-158-238-158-133 0-233 69-233 162 0 83 57 129 188 160l169 40c203 48 298 149 298 302 0 196-179 339-441 339" id="aV"/><g id="g"><use transform="matrix(0.009765625,0,0,0.009765625,0,0)" xlink:href="#aU"/><use transform="matrix(0.009765625,0,0,0.009765625,12.666015625,0)" xlink:href="#aK"/><use transform="matrix(0.009765625,0,0,0.009765625,24.658203125,0)" xlink:href="#aV"/><use transform="matrix(0.009765625,0,0,0.009765625,35.21484375,0)" xlink:href="#aJ"/><use transform="matrix(0.009765625,0,0,0.009765625,40.05859375,0)" xlink:href="#aI"/><use transform="matrix(0.009765625,0,0,0.009765625,51.484375,0)" xlink:href="#aJ"/><use transform="matrix(0.009765625,0,0,0.009765625,56.328125,0)" xlink:href="#aK"/><use transform="matrix(0.009765625,0,0,0.009765625,68.3203125,0)" xlink:href="#aG"/><use transform="matrix(0.009765625,0,0,0.009765625,80.13671875,0)" xlink:href="#aQ"/><use transform="matrix(0.009765625,0,0,0.009765625,91.3671875,0)" xlink:href="#aP"/></g><use transform="matrix(0.009765625,0,0,0.009765625,0,0)" xlink:href="#aK" id="h"/><path d="M180 0v-1490h270l367 940c28 72 75 218 110 339 35-117 81-264 110-339l362-940h271V0h-187c2-448-5-837 7-1287-157 497-311 829-483 1287H842C666-458 514-784 354-1284c12 438 5 843 7 1284H180" id="aW"/><path d="M158 0v-1118h175l1 205c55-151 181-225 313-225 147 0 245 90 285 228 53-141 190-228 352-228 194 0 352 125 352 384V0h-181v-749c0-161-105-225-225-225-151 0-243 103-243 244V0H807v-767c0-124-93-207-219-207-131 0-250 92-250 270V0H158" id="aX"/><path d="M628 24c-324 0-524-230-524-574 0-343 198-582 503-582 237 0 487 146 487 559v75H286c9 234 145 362 343 362 132 0 231-58 273-172l174 48C1024-91 857 24 628 24zM287-650h624c-17-190-120-322-304-322-192 0-309 151-320 322" id="aY"/><g id="i"><use transform="matrix(0.009765625,0,0,0.009765625,0,0)" xlink:href="#aW"/><use transform="matrix(0.009765625,0,0,0.009765625,18.06640625,0)" xlink:href="#aJ"/><use transform="matrix(0.009765625,0,0,0.009765625,22.91015625,0)" xlink:href="#aI"/><use transform="matrix(0.009765625,0,0,0.009765625,34.3359375,0)" xlink:href="#aP"/><use transform="matrix(0.009765625,0,0,0.009765625,41.533203125,0)" xlink:href="#aK"/><use transform="matrix(0.009765625,0,0,0.009765625,53.525390625,0)" xlink:href="#aX"/><use transform="matrix(0.009765625,0,0,0.009765625,71.044921875,0)" xlink:href="#aK"/><use transform="matrix(0.009765625,0,0,0.009765625,83.037109375,0)" xlink:href="#aO"/><use transform="matrix(0.009765625,0,0,0.009765625,94.86328125,0)" xlink:href="#aV"/><use transform="matrix(0.009765625,0,0,0.009765625,105.419921875,0)" xlink:href="#aY"/></g><g id="j"><use transform="matrix(0.009765625,0,0,0.009765625,0,0)" xlink:href="#aF"/><use transform="matrix(0.009765625,0,0,0.009765625,5.37109375,0)" xlink:href="#aG"/><use transform="matrix(0.009765625,0,0,0.009765625,17.1875,0)" xlink:href="#aJ"/><use transform="matrix(0.009765625,0,0,0.009765625,22.03125,0)" xlink:href="#aI"/><use transform="matrix(0.009765625,0,0,0.009765625,33.45703125,0)" xlink:href="#aJ"/><use transform="matrix(0.009765625,0,0,0.009765625,38.30078125,0)" xlink:href="#aQ"/><use transform="matrix(0.009765625,0,0,0.009765625,49.53125,0)" xlink:href="#aP"/></g><path d="M577 24c-279 0-473-224-473-580 0-354 195-576 474-576 218 0 287 134 324 193h14v-551h180V0H922v-173h-20C865-111 790 24 577 24zm27-161c203 0 314-172 314-421 0-247-108-413-314-413-212 0-317 181-317 413 0 235 108 421 317 421" id="aZ"/><g id="k"><use transform="matrix(0.009765625,0,0,0.009765625,0,0)" xlink:href="#aL"/><use transform="matrix(0.009765625,0,0,0.009765625,14.609375,0)" xlink:href="#aK"/><use transform="matrix(0.009765625,0,0,0.009765625,26.6015625,0)" xlink:href="#aP"/><use transform="matrix(0.009765625,0,0,0.009765625,34.443359375,0)" xlink:href="#aP"/><use transform="matrix(0.009765625,0,0,0.009765625,42.28515625,0)" xlink:href="#aJ"/><use transform="matrix(0.009765625,0,0,0.009765625,47.12890625,0)" xlink:href="#aZ"/><use transform="matrix(0.009765625,0,0,0.009765625,59.375,0)" xlink:href="#aQ"/></g><path d="M52 0l541-1490h220L1361 0h-200l-149-416H398L254 0H52zm404-582h497c-103-290-145-390-251-756-108 377-145 460-246 756" id="ba"/><path d="M158 418v-1536h174v179h20c37-59 106-193 324-193 279 0 474 222 474 576 0 356-194 580-473 580-213 0-288-135-325-197h-14v591H158zm492-555c209 0 317-186 317-421 0-232-105-413-317-413-206 0-314 166-314 413 0 249 111 421 314 421" id="bb"/><path d="M338-670V0H158v-1490h180v566c73-149 190-208 336-208 226 0 379 139 379 422V0H872v-695c0-172-96-275-252-275-161 0-282 109-282 300" id="bc"/><g id="l"><use transform="matrix(0.009765625,0,0,0.009765625,0,0)" xlink:href="#ba"/><use transform="matrix(0.009765625,0,0,0.009765625,13.798828125,0)" xlink:href="#aI"/><use transform="matrix(0.009765625,0,0,0.009765625,25.224609375,0)" xlink:href="#aK"/><use transform="matrix(0.009765625,0,0,0.009765625,37.216796875,0)" xlink:href="#aX"/><use transform="matrix(0.009765625,0,0,0.009765625,54.736328125,0)" xlink:href="#bb"/><use transform="matrix(0.009765625,0,0,0.009765625,67.177734375,0)" xlink:href="#aQ"/><use transform="matrix(0.009765625,0,0,0.009765625,78.408203125,0)" xlink:href="#aG"/><use transform="matrix(0.009765625,0,0,0.009765625,90.224609375,0)" xlink:href="#bc"/><use transform="matrix(0.009765625,0,0,0.009765625,102.05078125,0)" xlink:href="#aQ"/><use transform="matrix(0.009765625,0,0,0.009765625,113.28125,0)" xlink:href="#aP"/></g><g id="m"><use transform="matrix(0.009765625,0,0,0.009765625,0,0)" xlink:href="#aP"/><use transform="matrix(0.009765625,0,0,0.009765625,7.197265625,0)" xlink:href="#aY"/><use transform="matrix(0.009765625,0,0,0.009765625,18.857421875,0)" xlink:href="#aV"/><use transform="matrix(0.009765625,0,0,0.009765625,29.4140625,0)" xlink:href="#aO"/><use transform="matrix(0.009765625,0,0,0.009765625,41.240234375,0)" xlink:href="#aR"/><use transform="matrix(0.009765625,0,0,0.009765625,46.376953125,0)" xlink:href="#aT"/><use transform="matrix(0.009765625,0,0,0.009765625,53.017578125,0)" xlink:href="#aQ"/><use transform="matrix(0.009765625,0,0,0.009765625,64.248046875,0)" xlink:href="#aZ"/><use transform="matrix(0.009765625,0,0,0.009765625,76.494140625,0)" xlink:href="#aK"/></g><g id="n"><use transform="matrix(0.009765625,0,0,0.009765625,0,0)" xlink:href="#aG"/><use transform="matrix(0.009765625,0,0,0.009765625,11.81640625,0)" xlink:href="#aK"/></g><g id="o"><use transform="matrix(0.009765625,0,0,0.009765625,0,0)" xlink:href="#bb"/><use transform="matrix(0.009765625,0,0,0.009765625,12.44140625,0)" xlink:href="#aQ"/><use transform="matrix(0.009765625,0,0,0.009765625,23.671875,0)" xlink:href="#aJ"/><use transform="matrix(0.009765625,0,0,0.009765625,28.515625,0)" xlink:href="#aG"/><use transform="matrix(0.009765625,0,0,0.009765625,40.33203125,0)" xlink:href="#aY"/><use transform="matrix(0.009765625,0,0,0.009765625,51.9921875,0)" xlink:href="#aR"/></g><path d="M180 0v-1490h901v168H370v510h643v168H370V0H180" id="bd"/><path d="M126 0v-134l627-806v-11H146v-167h839v143L376-178v11h629V0H126" id="be"/><g id="p"><use transform="matrix(0.009765625,0,0,0.009765625,0,0)" xlink:href="#bd"/><use transform="matrix(0.009765625,0,0,0.009765625,11.806640625,0)" xlink:href="#aJ"/><use transform="matrix(0.009765625,0,0,0.009765625,16.650390625,0)" xlink:href="#aG"/><use transform="matrix(0.009765625,0,0,0.009765625,28.466796875,0)" xlink:href="#aQ"/><use transform="matrix(0.009765625,0,0,0.009765625,39.697265625,0)" xlink:href="#aR"/><use transform="matrix(0.009765625,0,0,0.009765625,44.541015625,0)" xlink:href="#aJ"/><use transform="matrix(0.009765625,0,0,0.009765625,49.384765625,0)" xlink:href="#be"/><use transform="matrix(0.009765625,0,0,0.009765625,60.4296875,0)" xlink:href="#aQ"/><use transform="matrix(0.009765625,0,0,0.009765625,71.66015625,0)" xlink:href="#aP"/></g><g id="q"><use transform="matrix(0.009765625,0,0,0.009765625,0,0)" xlink:href="#aI"/><use transform="matrix(0.009765625,0,0,0.009765625,11.42578125,0)" xlink:href="#aK"/><use transform="matrix(0.009765625,0,0,0.009765625,23.41796875,0)" xlink:href="#aP"/><use transform="matrix(0.009765625,0,0,0.009765625,31.259765625,0)" xlink:href="#aP"/><use transform="matrix(0.009765625,0,0,0.009765625,39.1015625,0)" xlink:href="#aJ"/><use transform="matrix(0.009765625,0,0,0.009765625,43.9453125,0)" xlink:href="#aZ"/><use transform="matrix(0.009765625,0,0,0.009765625,56.19140625,0)" xlink:href="#aQ"/></g><g id="r"><use transform="matrix(0.009765625,0,0,0.009765625,0,0)" xlink:href="#aF"/><use transform="matrix(0.009765625,0,0,0.009765625,5.37109375,0)" xlink:href="#aG"/><use transform="matrix(0.009765625,0,0,0.009765625,17.1875,0)" xlink:href="#aJ"/><use transform="matrix(0.009765625,0,0,0.009765625,22.03125,0)" xlink:href="#aI"/><use transform="matrix(0.009765625,0,0,0.009765625,33.45703125,0)" xlink:href="#aJ"/><use transform="matrix(0.009765625,0,0,0.009765625,38.30078125,0)" xlink:href="#aQ"/><use transform="matrix(0.009765625,0,0,0.009765625,49.53125,0)" xlink:href="#aR"/><use transform="matrix(0.009765625,0,0,0.009765625,54.375,0)" xlink:href="#aJ"/><use transform="matrix(0.009765625,0,0,0.009765625,59.21875,0)" xlink:href="#be"/><use transform="matrix(0.009765625,0,0,0.009765625,70.263671875,0)" xlink:href="#aQ"/><use transform="matrix(0.009765625,0,0,0.009765625,81.494140625,0)" xlink:href="#aP"/></g><g id="s"><use transform="matrix(0.009765625,0,0,0.009765625,0,0)" xlink:href="#aV"/><use transform="matrix(0.009765625,0,0,0.009765625,10.556640625,0)" xlink:href="#aY"/><use transform="matrix(0.009765625,0,0,0.009765625,22.216796875,0)" xlink:href="#aG"/><use transform="matrix(0.009765625,0,0,0.009765625,34.033203125,0)" xlink:href="#aV"/><use transform="matrix(0.009765625,0,0,0.009765625,44.58984375,0)" xlink:href="#aK"/><use transform="matrix(0.009765625,0,0,0.009765625,56.58203125,0)" xlink:href="#aP"/><use transform="matrix(0.009765625,0,0,0.009765625,63.779296875,0)" xlink:href="#aY"/><use transform="matrix(0.009765625,0,0,0.009765625,75.439453125,0)" xlink:href="#aV"/></g><use transform="matrix(0.009765625,0,0,0.009765625,0,0)" xlink:href="#aY" id="t"/><g id="u"><use transform="matrix(0.009765625,0,0,0.009765625,0,0)" xlink:href="#aX"/><use transform="matrix(0.009765625,0,0,0.009765625,17.51953125,0)" xlink:href="#aK"/><use transform="matrix(0.009765625,0,0,0.009765625,29.51171875,0)" xlink:href="#aT"/><use transform="matrix(0.009765625,0,0,0.009765625,35.859375,0)" xlink:href="#aK"/><use transform="matrix(0.009765625,0,0,0.009765625,47.8515625,0)" xlink:href="#aP"/><use transform="matrix(0.009765625,0,0,0.009765625,55.048828125,0)" xlink:href="#aY"/><use transform="matrix(0.009765625,0,0,0.009765625,66.708984375,0)" xlink:href="#aV"/></g><path d="M180 0v-1490h190v1322h690V0H180" id="bf"/><g id="v"><use transform="matrix(0.009765625,0,0,0.009765625,0,0)" xlink:href="#bf"/><use transform="matrix(0.009765625,0,0,0.009765625,11.30859375,0)" xlink:href="#aY"/><use transform="matrix(0.009765625,0,0,0.009765625,22.96875,0)" xlink:href="#aP"/></g><path d="M657 26c-323 0-524-166-541-416h195c15 169 171 246 346 246 202 0 356-106 356-265 5-203-294-238-475-293-239-73-380-191-380-389 0-252 224-419 512-419 294 0 499 171 508 396H992c-17-145-151-228-328-228-193 0-321 102-321 242 0 156 175 211 284 241l149 41c160 44 422 134 422 412 0 244-197 432-541 432" id="bg"/><g id="w"><use transform="matrix(0.009765625,0,0,0.009765625,0,0)" xlink:href="#bg"/><use transform="matrix(0.009765625,0,0,0.009765625,12.83203125,0)" xlink:href="#aY"/><use transform="matrix(0.009765625,0,0,0.009765625,24.4921875,0)" xlink:href="#aG"/><use transform="matrix(0.009765625,0,0,0.009765625,36.30859375,0)" xlink:href="#aV"/><use transform="matrix(0.009765625,0,0,0.009765625,46.865234375,0)" xlink:href="#aK"/><use transform="matrix(0.009765625,0,0,0.009765625,58.857421875,0)" xlink:href="#aP"/><use transform="matrix(0.009765625,0,0,0.009765625,66.0546875,0)" xlink:href="#aY"/><use transform="matrix(0.009765625,0,0,0.009765625,77.71484375,0)" xlink:href="#aV"/></g><g id="x"><use transform="matrix(0.009765625,0,0,0.009765625,0,0)" xlink:href="#ba"/><use transform="matrix(0.009765625,0,0,0.009765625,13.408203125,0)" xlink:href="#aT"/><use transform="matrix(0.009765625,0,0,0.009765625,19.951171875,0)" xlink:href="#aO"/><use transform="matrix(0.009765625,0,0,0.009765625,31.77734375,0)" xlink:href="#aQ"/><use transform="matrix(0.009765625,0,0,0.009765625,43.0078125,0)" xlink:href="#aR"/><use transform="matrix(0.009765625,0,0,0.009765625,47.8515625,0)" xlink:href="#aJ"/><use transform="matrix(0.009765625,0,0,0.009765625,52.6953125,0)" xlink:href="#be"/><use transform="matrix(0.009765625,0,0,0.009765625,63.740234375,0)" xlink:href="#aQ"/><use transform="matrix(0.009765625,0,0,0.009765625,74.970703125,0)" xlink:href="#aP"/></g><g id="y"><use transform="matrix(0.009765625,0,0,0.009765625,0,0)" xlink:href="#aW"/><use transform="matrix(0.009765625,0,0,0.009765625,18.06640625,0)" xlink:href="#aQ"/><use transform="matrix(0.009765625,0,0,0.009765625,29.296875,0)" xlink:href="#bb"/><use transform="matrix(0.009765625,0,0,0.009765625,41.73828125,0)" xlink:href="#aQ"/></g><g id="z"><use transform="matrix(0.009765625,0,0,0.009765625,0,0)" xlink:href="#aF"/><use transform="matrix(0.009765625,0,0,0.009765625,5.37109375,0)" xlink:href="#aG"/><use transform="matrix(0.009765625,0,0,0.009765625,17.1875,0)" xlink:href="#aT"/><use transform="matrix(0.009765625,0,0,0.009765625,23.53515625,0)" xlink:href="#aY"/><use transform="matrix(0.009765625,0,0,0.009765625,35.1953125,0)" xlink:href="#aP"/><use transform="matrix(0.009765625,0,0,0.009765625,43.037109375,0)" xlink:href="#aG"/><use transform="matrix(0.009765625,0,0,0.009765625,54.853515625,0)" xlink:href="#aK"/></g><path d="M180 0v-1490h908v168H370v486h669v168H370v500h727V0H180" id="bh"/><path d="M65 0l393-574-370-544h210c88 136 192 297 267 435 67-142 176-302 264-435h206L661-564 1053 0H844c-94-144-206-310-287-458C484-308 366-142 273 0H65" id="bi"/><g id="A"><use transform="matrix(0.009765625,0,0,0.009765625,0,0)" xlink:href="#bh"/><use transform="matrix(0.009765625,0,0,0.009765625,12.021484375,0)" xlink:href="#bi"/><use transform="matrix(0.009765625,0,0,0.009765625,22.490234375,0)" xlink:href="#aY"/><use transform="matrix(0.009765625,0,0,0.009765625,34.150390625,0)" xlink:href="#aI"/><use transform="matrix(0.009765625,0,0,0.009765625,45.576171875,0)" xlink:href="#aO"/><use transform="matrix(0.009765625,0,0,0.009765625,57.40234375,0)" xlink:href="#aT"/><use transform="matrix(0.009765625,0,0,0.009765625,64.04296875,0)" xlink:href="#aQ"/><use transform="matrix(0.009765625,0,0,0.009765625,75.2734375,0)" xlink:href="#aP"/></g><path d="M481 0L54-1118h197c107 314 236 620 325 951 87-331 217-637 324-951h197L670 0H481" id="bj"/><g id="B"><use transform="matrix(0.009765625,0,0,0.009765625,0,0)" xlink:href="#aX"/><use transform="matrix(0.009765625,0,0,0.009765625,17.51953125,0)" xlink:href="#aK"/><use transform="matrix(0.009765625,0,0,0.009765625,29.12109375,0)" xlink:href="#bj"/><use transform="matrix(0.009765625,0,0,0.009765625,40.361328125,0)" xlink:href="#aJ"/><use transform="matrix(0.009765625,0,0,0.009765625,45.205078125,0)" xlink:href="#aX"/><use transform="matrix(0.009765625,0,0,0.009765625,62.724609375,0)" xlink:href="#aY"/><use transform="matrix(0.009765625,0,0,0.009765625,74.384765625,0)" xlink:href="#aG"/><use transform="matrix(0.009765625,0,0,0.009765625,86.201171875,0)" xlink:href="#aT"/><use transform="matrix(0.009765625,0,0,0.009765625,92.548828125,0)" xlink:href="#aK"/></g><g id="C"><use transform="matrix(0.009765625,0,0,0.009765625,0,0)" xlink:href="#ba"/><use transform="matrix(0.009765625,0,0,0.009765625,13.798828125,0)" xlink:href="#bb"/><use transform="matrix(0.009765625,0,0,0.009765625,26.044921875,0)" xlink:href="#aP"/><use transform="matrix(0.009765625,0,0,0.009765625,33.2421875,0)" xlink:href="#aY"/><use transform="matrix(0.009765625,0,0,0.009765625,44.90234375,0)" xlink:href="#aV"/><use transform="matrix(0.009765625,0,0,0.009765625,55.458984375,0)" xlink:href="#aY"/><use transform="matrix(0.009765625,0,0,0.009765625,67.119140625,0)" xlink:href="#aG"/><use transform="matrix(0.009765625,0,0,0.009765625,78.935546875,0)" xlink:href="#aT"/><use transform="matrix(0.009765625,0,0,0.009765625,85.576171875,0)" xlink:href="#aQ"/><use transform="matrix(0.009765625,0,0,0.009765625,96.806640625,0)" xlink:href="#aP"/></g><g id="D"><use transform="matrix(0.009765625,0,0,0.009765625,0,0)" xlink:href="#aM"/><use transform="matrix(0.009765625,0,0,0.009765625,7.40234375,0)" xlink:href="#aJ"/><use transform="matrix(0.009765625,0,0,0.009765625,12.24609375,0)" xlink:href="#aG"/><use transform="matrix(0.009765625,0,0,0.009765625,24.0625,0)" xlink:href="#aQ"/><use transform="matrix(0.009765625,0,0,0.009765625,35.29296875,0)" xlink:href="#aR"/></g><path d="M180 0v-1490h510c348 0 508 194 508 460 0 198-88 351-276 417L1256 0h-220L726-579c-117 2-238 0-356 1V0H180zm190-747h312c235 0 327-108 327-283 0-177-92-293-329-293H370v576" id="bk"/><g id="E"><use transform="matrix(0.009765625,0,0,0.009765625,0,0)" xlink:href="#bk"/><use transform="matrix(0.009765625,0,0,0.009765625,12.578125,0)" xlink:href="#aY"/><use transform="matrix(0.009765625,0,0,0.009765625,24.23828125,0)" xlink:href="#aI"/><use transform="matrix(0.009765625,0,0,0.009765625,35.6640625,0)" xlink:href="#aY"/><use transform="matrix(0.009765625,0,0,0.009765625,47.32421875,0)" xlink:href="#aS"/><use transform="matrix(0.009765625,0,0,0.009765625,59.5703125,0)" xlink:href="#aY"/><use transform="matrix(0.009765625,0,0,0.009765625,71.23046875,0)" xlink:href="#aP"/></g><g id="F"><use transform="matrix(0.009765625,0,0,0.009765625,0,0)" xlink:href="#bb"/><use transform="matrix(0.009765625,0,0,0.009765625,12.44140625,0)" xlink:href="#aQ"/><use transform="matrix(0.009765625,0,0,0.009765625,23.671875,0)" xlink:href="#aI"/><use transform="matrix(0.009765625,0,0,0.009765625,35.09765625,0)" xlink:href="#aK"/><use transform="matrix(0.009765625,0,0,0.009765625,47.08984375,0)" xlink:href="#aT"/><use transform="matrix(0.009765625,0,0,0.009765625,53.4375,0)" xlink:href="#aY"/></g><g id="G"><use transform="matrix(0.009765625,0,0,0.009765625,0,0)" xlink:href="#aZ"/><use transform="matrix(0.009765625,0,0,0.009765625,12.24609375,0)" xlink:href="#aY"/></g><g id="H"><use transform="matrix(0.009765625,0,0,0.009765625,0,0)" xlink:href="#aT"/><use transform="matrix(0.009765625,0,0,0.009765625,6.34765625,0)" xlink:href="#aY"/><use transform="matrix(0.009765625,0,0,0.009765625,18.0078125,0)" xlink:href="#aR"/><use transform="matrix(0.009765625,0,0,0.009765625,22.8515625,0)" xlink:href="#aY"/><use transform="matrix(0.009765625,0,0,0.009765625,34.51171875,0)" xlink:href="#aX"/><use transform="matrix(0.009765625,0,0,0.009765625,52.03125,0)" xlink:href="#aY"/><use transform="matrix(0.009765625,0,0,0.009765625,63.69140625,0)" xlink:href="#aT"/><use transform="matrix(0.009765625,0,0,0.009765625,70.234375,0)" xlink:href="#aP"/><use transform="matrix(0.009765625,0,0,0.009765625,78.076171875,0)" xlink:href="#aJ"/><use transform="matrix(0.009765625,0,0,0.009765625,82.919921875,0)" xlink:href="#aQ"/></g><g id="I"><use transform="matrix(0.009765625,0,0,0.009765625,0,0)" xlink:href="#aL"/><use transform="matrix(0.009765625,0,0,0.009765625,14.609375,0)" xlink:href="#aQ"/><use transform="matrix(0.009765625,0,0,0.009765625,25.83984375,0)" xlink:href="#aR"/><use transform="matrix(0.009765625,0,0,0.009765625,30.68359375,0)" xlink:href="#aI"/><use transform="matrix(0.009765625,0,0,0.009765625,42.109375,0)" xlink:href="#aO"/><use transform="matrix(0.009765625,0,0,0.009765625,53.935546875,0)" xlink:href="#aR"/><use transform="matrix(0.009765625,0,0,0.009765625,58.779296875,0)" xlink:href="#aQ"/><use transform="matrix(0.009765625,0,0,0.009765625,70.009765625,0)" xlink:href="#aP"/></g><g id="J"><use transform="matrix(0.009765625,0,0,0.009765625,0,0)" xlink:href="#aP"/><use transform="matrix(0.009765625,0,0,0.009765625,7.197265625,0)" xlink:href="#aK"/><use transform="matrix(0.009765625,0,0,0.009765625,19.189453125,0)" xlink:href="#aT"/><use transform="matrix(0.009765625,0,0,0.009765625,25.830078125,0)" xlink:href="#aQ"/></g><g id="K"><use transform="matrix(0.009765625,0,0,0.009765625,0,0)" xlink:href="#aI"/><use transform="matrix(0.009765625,0,0,0.009765625,11.42578125,0)" xlink:href="#aK"/><use transform="matrix(0.009765625,0,0,0.009765625,23.41796875,0)" xlink:href="#aX"/></g><g id="L"><use transform="matrix(0.009765625,0,0,0.009765625,0,0)" xlink:href="#bd"/><use transform="matrix(0.009765625,0,0,0.009765625,11.806640625,0)" xlink:href="#aR"/><use transform="matrix(0.009765625,0,0,0.009765625,16.650390625,0)" xlink:href="#aK"/><use transform="matrix(0.009765625,0,0,0.009765625,28.642578125,0)" xlink:href="#aK"/><use transform="matrix(0.009765625,0,0,0.009765625,40.634765625,0)" xlink:href="#aZ"/></g><g id="M"><use transform="matrix(0.009765625,0,0,0.009765625,0,0)" xlink:href="#bd"/><use transform="matrix(0.009765625,0,0,0.009765625,11.806640625,0)" xlink:href="#aJ"/><use transform="matrix(0.009765625,0,0,0.009765625,16.650390625,0)" xlink:href="#aR"/><use transform="matrix(0.009765625,0,0,0.009765625,21.494140625,0)" xlink:href="#aR"/></g><path d="M180 0v-1490h224l606 953c40 63 108 177 176 312-27-437-7-821-13-1265h190V0h-226C860-448 622-778 356-1262c27 476 11 792 15 1262H180" id="bl"/><path d="M471 26C259 26 90-98 90-318c0-256 228-303 435-329 202-27 287-16 287-108 0-139-79-219-234-219-161 0-248 86-283 164l-173-57c86-203 278-265 451-265 150 0 419 46 419 395V0H815v-152h-12C765-73 660 26 471 26zm31-159c199 0 310-134 310-271v-155c-30 35-226 55-295 64-131 17-246 59-246 186 0 116 97 176 231 176zm187-1180c-99 0-192-83-243-83-35 0-51 40-53 79H267c4-120 55-208 162-208 104 0 174 85 241 85 33 0 49-23 56-81h123c-4 126-62 208-160 208" id="bm"/><g id="N"><use transform="matrix(0.009765625,0,0,0.009765625,0,0)" xlink:href="#bl"/><use transform="matrix(0.009765625,0,0,0.009765625,15.068359375,0)" xlink:href="#bm"/><use transform="matrix(0.009765625,0,0,0.009765625,26.298828125,0)" xlink:href="#aK"/></g><g id="O"><use transform="matrix(0.009765625,0,0,0.009765625,0,0)" xlink:href="#aU"/><use transform="matrix(0.009765625,0,0,0.009765625,12.7734375,0)" xlink:href="#aQ"/><use transform="matrix(0.009765625,0,0,0.009765625,24.00390625,0)" xlink:href="#aI"/><use transform="matrix(0.009765625,0,0,0.009765625,35.4296875,0)" xlink:href="#aK"/><use transform="matrix(0.009765625,0,0,0.009765625,47.421875,0)" xlink:href="#aT"/><use transform="matrix(0.009765625,0,0,0.009765625,53.76953125,0)" xlink:href="#aY"/></g><path d="M471 26C259 26 90-98 90-318c0-256 228-303 435-329 202-27 287-16 287-108 0-139-79-219-234-219-161 0-248 86-283 164l-173-57c86-203 278-265 451-265 150 0 419 46 419 395V0H815v-152h-12C765-73 660 26 471 26zm31-159c199 0 310-134 310-271v-155c-30 35-226 55-295 64-131 17-246 59-246 186 0 116 97 176 231 176zm-23-1131l140-294h201l-194 294H479" id="bn"/><path d="M383-449c-3-277 82-343 222-425 88-53 156-134 156-250 0-139-108-227-243-227-118 0-235 70-246 236H82c10-251 200-395 436-395 259 0 427 165 427 393 0 161-74 273-203 352-132 80-180 132-178 316H383zm93 462c-75 0-135-60-135-134 0-75 60-135 135-135 74 0 134 60 134 135 0 74-60 134-134 134" id="bo"/><g id="P"><use transform="matrix(0.009765625,0,0,0.009765625,0,0)" xlink:href="#bj"/><use transform="matrix(0.009765625,0,0,0.009765625,11.142578125,0)" xlink:href="#bn"/><use transform="matrix(0.009765625,0,0,0.009765625,22.373046875,0)" xlink:href="#aR"/><use transform="matrix(0.009765625,0,0,0.009765625,27.216796875,0)" xlink:href="#aJ"/><use transform="matrix(0.009765625,0,0,0.009765625,32.060546875,0)" xlink:href="#aZ"/><use transform="matrix(0.009765625,0,0,0.009765625,44.306640625,0)" xlink:href="#aK"/><use transform="matrix(0.009765625,0,0,0.009765625,56.298828125,0)" xlink:href="#bo"/></g><g id="Q"><use transform="matrix(0.009765625,0,0,0.009765625,0,0)" xlink:href="#bg"/><use transform="matrix(0.009765625,0,0,0.009765625,12.83203125,0)" xlink:href="#aJ"/><use transform="matrix(0.009765625,0,0,0.009765625,17.67578125,0)" xlink:href="#aX"/></g><g id="R"><use transform="matrix(0.009765625,0,0,0.009765625,0,0)" xlink:href="#aU"/><use transform="matrix(0.009765625,0,0,0.009765625,12.666015625,0)" xlink:href="#aY"/><use transform="matrix(0.009765625,0,0,0.009765625,24.326171875,0)" xlink:href="#aP"/><use transform="matrix(0.009765625,0,0,0.009765625,31.85546875,0)" xlink:href="#aV"/><use transform="matrix(0.009765625,0,0,0.009765625,42.412109375,0)" xlink:href="#aJ"/><use transform="matrix(0.009765625,0,0,0.009765625,47.255859375,0)" xlink:href="#aV"/><use transform="matrix(0.009765625,0,0,0.009765625,57.8125,0)" xlink:href="#aT"/><use transform="matrix(0.009765625,0,0,0.009765625,64.35546875,0)" xlink:href="#aJ"/><use transform="matrix(0.009765625,0,0,0.009765625,69.19921875,0)" xlink:href="#aP"/></g><g id="S"><use transform="matrix(0.009765625,0,0,0.009765625,0,0)" xlink:href="#aZ"/><use transform="matrix(0.009765625,0,0,0.009765625,12.24609375,0)" xlink:href="#aQ"/><use transform="matrix(0.009765625,0,0,0.009765625,23.4765625,0)" xlink:href="#aZ"/><use transform="matrix(0.009765625,0,0,0.009765625,35.72265625,0)" xlink:href="#aK"/><use transform="matrix(0.009765625,0,0,0.009765625,47.71484375,0)" xlink:href="#aV"/></g><g id="T"><use transform="matrix(0.009765625,0,0,0.009765625,0,0)" xlink:href="#aG"/><use transform="matrix(0.009765625,0,0,0.009765625,11.81640625,0)" xlink:href="#aK"/></g><path d="M784 20c-382 0-662-292-662-764 0-473 280-766 662-766s660 293 660 766c0 282-99 499-260 629l192 255h-198L1049-33C969 2 880 20 784 20zm-62-486h198l156 205c112-98 183-261 183-483 0-383-209-590-475-590-268 0-477 208-477 590 0 380 209 588 477 588 54 0 106-9 154-25" id="bp"/><g id="U"><use transform="matrix(0.009765625,0,0,0.009765625,0,0)" xlink:href="#bg"/><use transform="matrix(0.009765625,0,0,0.009765625,12.83203125,0)" xlink:href="#bp"/><use transform="matrix(0.009765625,0,0,0.009765625,28.125,0)" xlink:href="#bf"/><use transform="matrix(0.009765625,0,0,0.009765625,39.43359375,0)" xlink:href="#aJ"/><use transform="matrix(0.009765625,0,0,0.009765625,44.27734375,0)" xlink:href="#aT"/><use transform="matrix(0.009765625,0,0,0.009765625,50.625,0)" xlink:href="#aY"/></g><g id="V"><use transform="matrix(0.009765625,0,0,0.009765625,0,0)" xlink:href="#bh"/><use transform="matrix(0.009765625,0,0,0.009765625,12.021484375,0)" xlink:href="#aG"/><use transform="matrix(0.009765625,0,0,0.009765625,23.544921875,0)" xlink:href="#bj"/><use transform="matrix(0.009765625,0,0,0.009765625,34.78515625,0)" xlink:href="#aJ"/><use transform="matrix(0.009765625,0,0,0.009765625,39.62890625,0)" xlink:href="#aQ"/><use transform="matrix(0.009765625,0,0,0.009765625,50.859375,0)" xlink:href="#aP"/></g><path d="M502 418V313h118c73 0 98-17 98-66s-25-65-98-65h-82l21-161C285-4 104-228 104-552c0-350 205-580 509-580 216 0 392 114 453 309l-173 49c-33-115-133-197-280-197-223 0-326 196-326 419 0 220 103 415 326 415 150 0 252-85 285-206l172 49C1015-110 859 5 663 22v64c130 5 189 54 189 162 0 118-71 170-231 170H502" id="bq"/><g id="W"><use transform="matrix(0.009765625,0,0,0.009765625,0,0)" xlink:href="#aQ"/><use transform="matrix(0.009765625,0,0,0.009765625,11.23046875,0)" xlink:href="#aT"/><use transform="matrix(0.009765625,0,0,0.009765625,17.7734375,0)" xlink:href="#aO"/><use transform="matrix(0.009765625,0,0,0.009765625,29.599609375,0)" xlink:href="#aQ"/><use transform="matrix(0.009765625,0,0,0.009765625,40.830078125,0)" xlink:href="#aR"/><use transform="matrix(0.009765625,0,0,0.009765625,45.673828125,0)" xlink:href="#aJ"/><use transform="matrix(0.009765625,0,0,0.009765625,50.517578125,0)" xlink:href="#be"/><use transform="matrix(0.009765625,0,0,0.009765625,61.5625,0)" xlink:href="#aQ"/><use transform="matrix(0.009765625,0,0,0.009765625,72.79296875,0)" xlink:href="#bq"/><use transform="matrix(0.009765625,0,0,0.009765625,84.4140625,0)" xlink:href="#bm"/><use transform="matrix(0.009765625,0,0,0.009765625,95.64453125,0)" xlink:href="#aK"/></g><g id="X"><use transform="matrix(0.009765625,0,0,0.009765625,0,0)" xlink:href="#aQ"/><use transform="matrix(0.009765625,0,0,0.009765625,11.23046875,0)" xlink:href="#aK"/></g><g id="Y"><use transform="matrix(0.009765625,0,0,0.009765625,0,0)" xlink:href="#aM"/><use transform="matrix(0.009765625,0,0,0.009765625,7.40234375,0)" xlink:href="#aP"/><use transform="matrix(0.009765625,0,0,0.009765625,14.599609375,0)" xlink:href="#aK"/><use transform="matrix(0.009765625,0,0,0.009765625,26.591796875,0)" xlink:href="#aG"/><use transform="matrix(0.009765625,0,0,0.009765625,38.408203125,0)" xlink:href="#aT"/><use transform="matrix(0.009765625,0,0,0.009765625,44.755859375,0)" xlink:href="#aY"/><use transform="matrix(0.009765625,0,0,0.009765625,56.416015625,0)" xlink:href="#aG"/><use transform="matrix(0.009765625,0,0,0.009765625,68.232421875,0)" xlink:href="#aZ"/></g><path d="M784 20c-382 0-662-292-662-764 0-473 280-766 662-766s660 293 660 766c0 472-278 764-660 764zm0-176c266 0 475-207 475-588 0-383-209-590-475-590-268 0-477 208-477 590 0 380 209 588 477 588" id="br"/><path d="M157-1118h181V80c1 225-123 350-364 338V252c126 9 184-48 183-172v-1198zm91-183c-68 0-125-53-125-119s57-119 125-119c69 0 126 53 126 119s-57 119-126 119" id="bs"/><g id="Z"><use transform="matrix(0.009765625,0,0,0.009765625,0,0)" xlink:href="#br"/><use transform="matrix(0.009765625,0,0,0.009765625,15.29296875,0)" xlink:href="#aS"/><use transform="matrix(0.009765625,0,0,0.009765625,27.5390625,0)" xlink:href="#bs"/><use transform="matrix(0.009765625,0,0,0.009765625,32.3828125,0)" xlink:href="#aY"/><use transform="matrix(0.009765625,0,0,0.009765625,44.04296875,0)" xlink:href="#aT"/><use transform="matrix(0.009765625,0,0,0.009765625,50.5859375,0)" xlink:href="#aJ"/><use transform="matrix(0.009765625,0,0,0.009765625,55.4296875,0)" xlink:href="#bj"/><use transform="matrix(0.009765625,0,0,0.009765625,66.279296875,0)" xlink:href="#aK"/></g><g id="aa"><use transform="matrix(0.009765625,0,0,0.009765625,0,0)" xlink:href="#aQ"/><use transform="matrix(0.009765625,0,0,0.009765625,11.23046875,0)" xlink:href="#aT"/><use transform="matrix(0.009765625,0,0,0.009765625,17.7734375,0)" xlink:href="#aJ"/><use transform="matrix(0.009765625,0,0,0.009765625,22.6171875,0)" xlink:href="#aG"/><use transform="matrix(0.009765625,0,0,0.009765625,34.43359375,0)" xlink:href="#aN"/><use transform="matrix(0.009765625,0,0,0.009765625,46.69921875,0)" xlink:href="#aJ"/><use transform="matrix(0.009765625,0,0,0.009765625,51.54296875,0)" xlink:href="#aZ"/><use transform="matrix(0.009765625,0,0,0.009765625,63.7890625,0)" xlink:href="#aK"/><use transform="matrix(0.009765625,0,0,0.009765625,75.78125,0)" xlink:href="#bo"/></g><g id="ab"><use transform="matrix(0.009765625,0,0,0.009765625,0,0)" xlink:href="#bk"/><use transform="matrix(0.009765625,0,0,0.009765625,12.578125,0)" xlink:href="#aY"/><use transform="matrix(0.009765625,0,0,0.009765625,24.23828125,0)" xlink:href="#aN"/><use transform="matrix(0.009765625,0,0,0.009765625,36.50390625,0)" xlink:href="#aJ"/><use transform="matrix(0.009765625,0,0,0.009765625,41.34765625,0)" xlink:href="#aV"/><use transform="matrix(0.009765625,0,0,0.009765625,51.904296875,0)" xlink:href="#aT"/><use transform="matrix(0.009765625,0,0,0.009765625,58.447265625,0)" xlink:href="#aP"/><use transform="matrix(0.009765625,0,0,0.009765625,65.9765625,0)" xlink:href="#aQ"/><use transform="matrix(0.009765625,0,0,0.009765625,77.20703125,0)" xlink:href="#aP"/></g><g id="ac"><use transform="matrix(0.009765625,0,0,0.009765625,0,0)" xlink:href="#aY"/><use transform="matrix(0.009765625,0,0,0.009765625,11.66015625,0)" xlink:href="#aP"/><use transform="matrix(0.009765625,0,0,0.009765625,19.501953125,0)" xlink:href="#aP"/><use transform="matrix(0.009765625,0,0,0.009765625,26.69921875,0)" xlink:href="#aK"/></g><g id="ad"><use transform="matrix(0.009765625,0,0,0.009765625,0,0)" xlink:href="#bb"/><use transform="matrix(0.009765625,0,0,0.009765625,12.44140625,0)" xlink:href="#aQ"/><use transform="matrix(0.009765625,0,0,0.009765625,23.671875,0)" xlink:href="#aI"/><use transform="matrix(0.009765625,0,0,0.009765625,35.09765625,0)" xlink:href="#aK"/><use transform="matrix(0.009765625,0,0,0.009765625,47.08984375,0)" xlink:href="#aT"/><use transform="matrix(0.009765625,0,0,0.009765625,53.4375,0)" xlink:href="#aY"/></g><g id="ae"><use transform="matrix(0.009765625,0,0,0.009765625,0,0)" xlink:href="#bd"/><use transform="matrix(0.009765625,0,0,0.009765625,11.806640625,0)" xlink:href="#aJ"/><use transform="matrix(0.009765625,0,0,0.009765625,16.650390625,0)" xlink:href="#aX"/></g><g id="af"><use transform="matrix(0.009765625,0,0,0.009765625,0,0)" xlink:href="#ba"/><use transform="matrix(0.009765625,0,0,0.009765625,13.408203125,0)" xlink:href="#aT"/><use transform="matrix(0.009765625,0,0,0.009765625,19.951171875,0)" xlink:href="#aO"/><use transform="matrix(0.009765625,0,0,0.009765625,31.77734375,0)" xlink:href="#aQ"/><use transform="matrix(0.009765625,0,0,0.009765625,43.0078125,0)" xlink:href="#aR"/><use transform="matrix(0.009765625,0,0,0.009765625,47.8515625,0)" xlink:href="#aJ"/><use transform="matrix(0.009765625,0,0,0.009765625,52.6953125,0)" xlink:href="#be"/><use transform="matrix(0.009765625,0,0,0.009765625,63.740234375,0)" xlink:href="#aQ"/><use transform="matrix(0.009765625,0,0,0.009765625,74.970703125,0)" xlink:href="#aP"/></g><g id="ag"><use transform="matrix(0.009765625,0,0,0.009765625,0,0)" xlink:href="#bj"/><use transform="matrix(0.009765625,0,0,0.009765625,11.240234375,0)" xlink:href="#aJ"/><use transform="matrix(0.009765625,0,0,0.009765625,16.083984375,0)" xlink:href="#aV"/><use transform="matrix(0.009765625,0,0,0.009765625,26.640625,0)" xlink:href="#aO"/><use transform="matrix(0.009765625,0,0,0.009765625,38.466796875,0)" xlink:href="#aQ"/><use transform="matrix(0.009765625,0,0,0.009765625,49.697265625,0)" xlink:href="#aR"/><use transform="matrix(0.009765625,0,0,0.009765625,54.541015625,0)" xlink:href="#aJ"/><use transform="matrix(0.009765625,0,0,0.009765625,59.384765625,0)" xlink:href="#be"/><use transform="matrix(0.009765625,0,0,0.009765625,70.4296875,0)" xlink:href="#aQ"/><use transform="matrix(0.009765625,0,0,0.009765625,81.66015625,0)" xlink:href="#bq"/><use transform="matrix(0.009765625,0,0,0.009765625,93.28125,0)" xlink:href="#bm"/><use transform="matrix(0.009765625,0,0,0.009765625,104.51171875,0)" xlink:href="#aK"/></g><g id="ah"><use transform="matrix(0.009765625,0,0,0.009765625,0,0)" xlink:href="#aZ"/><use transform="matrix(0.009765625,0,0,0.009765625,12.24609375,0)" xlink:href="#aK"/></g><g id="ai"><use transform="matrix(0.009765625,0,0,0.009765625,0,0)" xlink:href="#bh"/><use transform="matrix(0.009765625,0,0,0.009765625,12.021484375,0)" xlink:href="#bi"/><use transform="matrix(0.009765625,0,0,0.009765625,22.939453125,0)" xlink:href="#aJ"/><use transform="matrix(0.009765625,0,0,0.009765625,27.783203125,0)" xlink:href="#aS"/><use transform="matrix(0.009765625,0,0,0.009765625,40.029296875,0)" xlink:href="#aJ"/><use transform="matrix(0.009765625,0,0,0.009765625,44.873046875,0)" xlink:href="#aP"/></g><path d="M628 24c-324 0-524-230-524-574 0-343 198-582 503-582 237 0 487 146 487 559v75H286c9 234 145 362 343 362 132 0 231-58 273-172l174 48C1024-91 857 24 628 24zM287-650h624c-17-190-120-322-304-322-192 0-309 151-320 322zm237-614l140-294h201l-194 294H524" id="bt"/><g id="aj"><use transform="matrix(0.009765625,0,0,0.009765625,0,0)" xlink:href="#aX"/><use transform="matrix(0.009765625,0,0,0.009765625,17.51953125,0)" xlink:href="#bt"/><use transform="matrix(0.009765625,0,0,0.009765625,29.1796875,0)" xlink:href="#aT"/><use transform="matrix(0.009765625,0,0,0.009765625,35.72265625,0)" xlink:href="#aP"/><use transform="matrix(0.009765625,0,0,0.009765625,43.564453125,0)" xlink:href="#aJ"/><use transform="matrix(0.009765625,0,0,0.009765625,48.408203125,0)" xlink:href="#aI"/><use transform="matrix(0.009765625,0,0,0.009765625,60.029296875,0)" xlink:href="#aQ"/><use transform="matrix(0.009765625,0,0,0.009765625,71.259765625,0)" xlink:href="#aV"/></g><g id="ak"><use transform="matrix(0.009765625,0,0,0.009765625,0,0)" xlink:href="#aZ"/><use transform="matrix(0.009765625,0,0,0.009765625,12.24609375,0)" xlink:href="#aQ"/></g></defs></g></svg>