<svg width="100%" height="100%" viewBox="90 40 880 370" preserveAspectRatio="xMidYMid meet" xmlns="http://www.w3.org/2000/svg" style="background-color: #0b0c10; display: block; width: 100%; height: 100%; min-height: 300px;">
  <defs>
    <filter id="neonGlow" x="-50%" y="-50%" width="200%" height="200%">
      <feGaussianBlur stdDeviation="4" result="blur" />
      <feMerge>
        <feMergeNode in="blur" />
        <feMergeNode in="SourceGraphic" />
      </feMerge>
    </filter>

    <path id="robotPath" d="
      M 110 210
      L 250 210
      L 250 130
      L 430 130
      L 430 250
      L 570 250
      L 570 310
      L 850 310
      L 850 230
      L 960 230
    "/>
  </defs>

  <style>
    .wall { stroke: #ffffff; stroke-width: 4; stroke-linecap: square; fill: none; }
    .glow { filter: url(#neonGlow); }
  </style>

  <path class="wall" d="
    M 110 190 L 110 50 L 950 50 L 950 210
  "/>
  <path class="wall" d="
    M 950 250 L 950 400 L 110 400 L 110 230
  "/>

  <g class="wall">
    <path d="M 150 50 L 150 150 L 190 150" />
    <path d="M 190 50 L 190 110 L 230 110" />
    <path d="M 270 50 L 270 110 L 330 110" /> 
    <path d="M 370 50 L 370 110 L 450 110" />
    <path d="M 410 50 L 410 80" />
    <path d="M 490 50 L 490 150 L 450 150" />
    <path d="M 530 50 L 530 110 L 590 110 L 590 150" />
    <path d="M 630 50 L 630 190 L 570 190" />
    <path d="M 690 50 L 690 150 L 750 150" />
    <path d="M 790 50 L 790 110" />
    <path d="M 830 50 L 830 150 L 890 150" />
    <path d="M 930 50 L 930 190 L 870 190 L 870 210" />
    
    <path d="M 230 150 L 230 190" />
    <path d="M 290 150 L 290 270 L 350 270" />
    <path d="M 390 150 L 390 230 L 410 230" /> 
    <path d="M 450 230 L 490 230" /> 
    <path d="M 470 150 L 470 190 L 530 190" />
    <path d="M 670 190 L 670 250 L 610 250 L 610 290" />
    <path d="M 710 190 L 790 190 L 790 240 L 750 240" />

    <path d="M 430 270 L 430 310" />
    <path d="M 350 310 L 350 400" />
    <path d="M 390 350 L 490 350 L 490 300 L 530 300" />
    
    <path d="M 710 270 L 710 290" /> 
    <path d="M 710 330 L 830 330" /> 
    <path d="M 830 290 L 830 230" /> 
    
    <path d="M 870 250 L 930 250 L 930 290" />

    <path d="M 150 400 L 150 320 L 190 320" />
    <path d="M 150 270 L 190 270 L 190 230 L 230 230" />
    <path d="M 230 400 L 230 270" />
    <path d="M 270 400 L 270 320 L 310 320 L 310 380" />
    <path d="M 530 400 L 530 340" />
    <path d="M 570 400 L 570 380" />
    <path d="M 650 400 L 650 320" />
    <path d="M 710 400 L 710 370" />
    <path d="M 770 400 L 770 370" />
    <path d="M 830 400 L 830 370" />
    <path d="M 870 400 L 870 290 L 930 290" />
    <path d="M 910 330 L 950 330" />
  </g>

  <g>
    <g transform="scale(1.2)">
      <rect x="-12" y="-14" width="8" height="6" fill="#111" rx="1" />
      <rect x="4" y="-14" width="8" height="6" fill="#111" rx="1" />
      <rect x="-12" y="8" width="8" height="6" fill="#111" rx="1" />
      <rect x="4" y="8" width="8" height="6" fill="#111" rx="1" />
      
      <rect x="-15" y="-10" width="30" height="20" fill="#1b5e20" stroke="#8cc63f" stroke-width="1" rx="2" />
      
      <rect x="-6" y="-6" width="12" height="12" fill="#000" rx="1" />
      
      <line x1="6" y1="-4" x2="11" y2="-4" stroke="#8cc63f" stroke-width="1" />
      <line x1="6" y1="0" x2="11" y2="0" stroke="#8cc63f" stroke-width="1" />
      <line x1="6" y1="4" x2="11" y2="4" stroke="#8cc63f" stroke-width="1" />
      
      <circle cx="14" cy="-7" r="1.5" fill="#fff" class="glow" />
      <circle cx="14" cy="7" r="1.5" fill="#fff" class="glow" />
    </g>

    <animateMotion
      dur="12s"
      repeatCount="indefinite"
      rotate="auto">
      <mpath href="#robotPath"/>
    </animateMotion>
  </g>

</svg>
