<svg width="100%" height="100%" viewBox="90 40 2420 370" preserveAspectRatio="xMidYMid meet" xmlns="http://www.w3.org/2000/svg" style="background-color: #0b0c10; display: block; width: 100%; height: 100%; min-height: 250px;">
  <defs>
    <filter id="neonGlow" x="-50%" y="-50%" width="200%" height="200%">
      <feGaussianBlur stdDeviation="4" result="blur" />
      <feMerge>
        <feMergeNode in="blur" />
        <feMergeNode in="SourceGraphic" />
      </feMerge>
    </filter>

    <path id="robotPath" d="
      M 110 210
      L 250 210
      L 250 130
      L 430 130
      L 430 250
      L 570 250
      L 570 310
      L 850 310
      L 850 230
      L 1050 230
      L 1050 130
      L 1250 130
      L 1250 290
      L 1550 290
      L 1550 210
      L 1840 210
      L 1840 130
      L 1970 130
      L 1970 290
      L 2130 290
      L 2130 170
      L 2230 170
      L 2230 290
      L 2480 290
    "/>
  </defs>

  <style>
    .wall { stroke: #ffffff; stroke-width: 4; stroke-linecap: square; fill: none; }
    .glow { filter: url(#neonGlow); }
  </style>

  <path class="wall" d="
    M 110 190 L 110 50 L 2450 50 L 2450 270
  "/>
  <path class="wall" d="
    M 2450 310 L 2450 400 L 110 400 L 110 230
  "/>

  <g class="wall">
    <path d="M 150 50 L 150 150 L 190 150" />
    <path d="M 190 50 L 190 110 L 230 110" />
    <path d="M 270 50 L 270 110 L 330 110" /> 
    <path d="M 370 50 L 370 110 L 450 110" />
    <path d="M 410 50 L 410 80" />
    <path d="M 490 50 L 490 150 L 450 150" />
    <path d="M 530 50 L 530 110 L 590 110 L 590 150" />
    <path d="M 630 50 L 630 190 L 570 190" />
    <path d="M 690 50 L 690 150 L 750 150" />
    <path d="M 790 50 L 790 110" />
    <path d="M 830 50 L 830 150 L 890 150" />
    <path d="M 930 50 L 930 190 L 870 190 L 870 210" />
    <path d="M 230 150 L 230 190" />
    <path d="M 290 150 L 290 270 L 350 270" />
    <path d="M 390 150 L 390 230 L 410 230" /> 
    <path d="M 450 230 L 490 230" /> 
    <path d="M 470 150 L 470 190 L 530 190" />
    <path d="M 670 190 L 670 250 L 610 250 L 610 290" />
    <path d="M 710 190 L 790 190 L 790 240 L 750 240" />
    <path d="M 430 270 L 430 310" />
    <path d="M 350 310 L 350 400" />
    <path d="M 390 350 L 490 350 L 490 300 L 530 300" />
    <path d="M 710 270 L 710 290" /> 
    <path d="M 710 330 L 830 330" /> 
    <path d="M 830 290 L 830 230" /> 
    <path d="M 870 250 L 930 250 L 930 290" />
    <path d="M 150 400 L 150 320 L 190 320" />
    <path d="M 150 270 L 190 270 L 190 230 L 230 230" />
    <path d="M 230 400 L 230 270" />
    <path d="M 270 400 L 270 320 L 310 320 L 310 380" />
    <path d="M 530 400 L 530 340" />
    <path d="M 570 400 L 570 380" />
    <path d="M 650 400 L 650 320" />
    <path d="M 710 400 L 710 370" />
    <path d="M 770 400 L 770 370" />
    <path d="M 830 400 L 830 370" />
    <path d="M 870 400 L 870 290 L 930 290" />
    <path d="M 910 330 L 950 330" />

    <path d="M 990 50 L 990 190 L 1030 190" />
    <path d="M 990 270 L 990 350 L 1050 350" />
    <path d="M 990 400 L 990 380" />
    <path d="M 1050 50 L 1050 110 L 1110 110" />
    <path d="M 1050 250 L 1050 310 L 1110 310" />
    <path d="M 1110 150 L 1110 270 L 1170 270" />
    <path d="M 1110 350 L 1110 400" />
    <path d="M 1170 50 L 1170 110" />
    <path d="M 1210 50 L 1210 110" />
    <path d="M 1250 50 L 1250 110 L 1310 110 L 1310 150" />
    <path d="M 1170 150 L 1170 230 L 1230 230" />
    <path d="M 1250 310 L 1250 400" />
    <path d="M 1170 310 L 1170 400" />
    <path d="M 1290 190 L 1290 270 L 1350 270" />
    <path d="M 1350 50 L 1350 250" />
    <path d="M 1310 310 L 1310 370 L 1370 370" />
    <path d="M 1370 150 L 1370 230" />
    <path d="M 1410 50 L 1410 150 L 1470 150 L 1470 230" />
    <path d="M 1410 190 L 1410 270 L 1490 270" />
    <path d="M 1410 310 L 1410 400" />
    <path d="M 1470 310 L 1470 350 L 1530 350" />
    <path d="M 1530 50 L 1530 190" />
    <path d="M 1570 230 L 1570 270 L 1630 270" />
    <path d="M 1530 310 L 1530 400" />
    <path d="M 1590 50 L 1590 150 L 1650 150 L 1650 190" />
    <path d="M 1650 50 L 1650 110 L 1710 110" />
    <path d="M 1590 310 L 1590 370 L 1650 370" />
    <path d="M 1650 230 L 1650 310 L 1710 310" />
    <path d="M 1710 150 L 1710 190" />
    <path d="M 1710 350 L 1710 400" />

    <path d="M 1750 50 L 1750 150 L 1810 150" />
    <path d="M 1750 250 L 1750 400" />
    <path d="M 1810 50 L 1810 110 L 1870 110" />
    <path d="M 1810 210 L 1810 350 L 1870 350" />
    <path d="M 1870 150 L 1870 270" />
    <path d="M 1910 50 L 1910 110" />
    <path d="M 1910 150 L 1910 310" />
    <path d="M 1950 150 L 1950 400" />
    <path d="M 1990 50 L 1990 270 L 2050 270" />
    <path d="M 2050 110 L 2110 110" />
    <path d="M 2050 150 L 2050 230 L 2110 230" />
    <path d="M 2050 310 L 2050 400" />
    <path d="M 2110 50 L 2110 90" />
    <path d="M 2110 310 L 2110 350 L 2170 350" />
    <path d="M 2150 50 L 2150 150" />
    <path d="M 2150 230 L 2150 310" />
    <path d="M 2210 50 L 2210 150" />
    <path d="M 2210 230 L 2210 400" />
    <path d="M 2250 110 L 2250 270 L 2310 270" />
    <path d="M 2290 50 L 2290 230" />
    <path d="M 2350 110 L 2350 270" />
    <path d="M 2350 310 L 2350 400" />
    <path d="M 2390 50 L 2390 270" />
    <path d="M 2390 310 L 2390 350" />
  </g>

  <g>
    <g transform="scale(1.2)">
      <rect x="-12" y="-14" width="8" height="6" fill="#111" rx="1" />
      <rect x="4" y="-14" width="8" height="6" fill="#111" rx="1" />
      <rect x="-12" y="8" width="8" height="6" fill="#111" rx="1" />
      <rect x="4" y="8" width="8" height="6" fill="#111" rx="1" />
      
      <rect x="-15" y="-10" width="30" height="20" fill="#1b5e20" stroke="#8cc63f" stroke-width="1" rx="2" />
      <rect x="-6" y="-6" width="12" height="12" fill="#000" rx="1" />
      
      <line x1="6" y1="-4" x2="11" y2="-4" stroke="#8cc63f" stroke-width="1" />
      <line x1="6" y1="0" x2="11" y2="0" stroke="#8cc63f" stroke-width="1" />
      <line x1="6" y1="4" x2="11" y2="4" stroke="#8cc63f" stroke-width="1" />
      
      <circle cx="14" cy="-7" r="1.5" fill="#fff" class="glow" />
      <circle cx="14" cy="7" r="1.5" fill="#fff" class="glow" />
    </g>

    <animateMotion
      dur="15s"
      repeatCount="indefinite"
      rotate="auto">
      <mpath href="#robotPath"/>
    </animateMotion>
  </g>
</svg>
